<?xml version="1.0" encoding="utf-8"?>
<!-- Generator: Adobe Illustrator 19.0.0, SVG Export Plug-In . SVG Version: 6.00 Build 0)  -->
<svg version="1.1" id="Layer_1" xmlns="http://www.w3.org/2000/svg" xmlns:xlink="http://www.w3.org/1999/xlink" x="0px" y="0px"
	 viewBox="0 0 73.7 42.5" style="enable-background:new 0 0 73.7 42.5;" xml:space="preserve">
<style type="text/css">
	.st0{fill:#161C21;}
</style>
<path id="XMLID_24_" class="st0" d="M49.6,19.1H31.2c-0.8,0-1.4,0.6-1.4,1.4c0,0.8,0.6,1.4,1.4,1.4h18.4c0.8,0,1.4-0.6,1.4-1.4
	C51,19.8,50.4,19.1,49.6,19.1"/>
<path id="XMLID_23_" class="st0" d="M49.6,24.8H31.2c-0.8,0-1.4,0.6-1.4,1.4c0,0.8,0.6,1.4,1.4,1.4h18.4c0.8,0,1.4-0.6,1.4-1.4
	C51,25.4,50.4,24.8,49.6,24.8"/>
<path id="XMLID_22_" class="st0" d="M41.1,30.5h-9.9c-0.8,0-1.4,0.6-1.4,1.4c0,0.8,0.6,1.4,1.4,1.4h9.9c0.8,0,1.4-0.6,1.4-1.4
	C42.5,31.1,41.9,30.5,41.1,30.5"/>
<path id="XMLID_19_" class="st0" d="M17,16.3c1.6,0,2.8,1.3,2.8,2.8c0,1.6-1.3,2.8-2.8,2.8c-1.6,0-2.8-1.3-2.8-2.8
	C14.2,17.6,15.4,16.3,17,16.3 M20,23.9c1.6-1,2.7-2.8,2.7-4.8c0-3.1-2.5-5.7-5.7-5.7c-3.1,0-5.7,2.5-5.7,5.7c0,2,1.1,3.8,2.7,4.8
	c-3.2,1.2-5.5,4.3-5.5,8c0,0.8,0.6,1.4,1.4,1.4c0.8,0,1.4-0.6,1.4-1.4c0-3.1,2.5-5.7,5.7-5.7c3.1,0,5.7,2.5,5.7,5.7
	c0,0.8,0.6,1.4,1.4,1.4c0.8,0,1.4-0.6,1.4-1.4C25.5,28.3,23.2,25.2,20,23.9"/>
<path id="XMLID_3_" class="st0" d="M56.7,36.1c0,1.6-1.3,2.8-2.8,2.8H5.7c-1.6,0-2.8-1.3-2.8-2.8V10.6c0-1.6,1.3-2.8,2.8-2.8h19.8
	v1.4c0,1.6,1.3,2.8,2.8,2.8h2.8c1.6,0,2.8-1.3,2.8-2.8V7.8h19.8c1.6,0,2.8,1.3,2.8,2.8V36.1z M28.3,3.5h2.8v5.7h-2.8V3.5z M53.9,5
	H34V3.5c0-1.6-1.3-2.8-2.8-2.8h-2.8c-1.6,0-2.8,1.3-2.8,2.8V5H5.7C2.5,5,0,7.5,0,10.6v25.5c0,3.1,2.5,5.7,5.7,5.7h48.2
	c3.1,0,5.7-2.5,5.7-5.7V10.6C59.5,7.5,57,5,53.9,5"/>
</svg>
