<?xml version="1.0" encoding="utf-8"?>
<!-- Generator: Adobe Illustrator 19.0.0, SVG Export Plug-In . SVG Version: 6.00 Build 0)  -->
<svg version="1.1" id="Layer_1" xmlns="http://www.w3.org/2000/svg" xmlns:xlink="http://www.w3.org/1999/xlink" x="0px" y="0px"
	 viewBox="0 0 73.7 42.5" style="enable-background:new 0 0 73.7 42.5;" xml:space="preserve">
<style type="text/css">
	.st0{fill:#161C21;}
</style>
<path id="XMLID_3_" class="st0" d="M13.6,11.7c-4.8,2-8,6.6-8,11.8c0,7,5.7,12.8,12.8,12.8c7,0,12.8-5.7,12.8-12.8
	c0-5.2-3.1-9.9-8-11.8c-0.7-0.3-1.6,0.1-1.8,0.8c-0.3,0.7,0.1,1.6,0.8,1.8c3.8,1.5,6.2,5.1,6.2,9.2c0,5.5-4.5,9.9-9.9,9.9
	c-5.5,0-9.9-4.4-9.9-9.9c0-4.1,2.4-7.7,6.2-9.2c0.7-0.3,1.1-1.1,0.8-1.8C15.2,11.8,14.4,11.4,13.6,11.7 M23,5.7
	c-0.8-0.2-1.5,0.3-1.7,1c-0.2,0.8,0.3,1.5,1,1.7c6.9,1.8,11.7,8,11.7,15.1c0,8.6-7,15.6-15.6,15.6c-8.6,0-15.6-7-15.6-15.6
	c0-7.1,4.8-13.3,11.7-15.1c0.8-0.2,1.2-1,1-1.7c-0.2-0.8-1-1.2-1.7-1C5.7,7.8,0,15.1,0,23.5C0,33.7,8.3,42,18.4,42
	c10.2,0,18.4-8.3,18.4-18.4C36.9,15.1,31.2,7.8,23,5.7 M18.4,25c0.8,0,1.4-0.6,1.4-1.4V2.3c0-0.8-0.6-1.4-1.4-1.4
	c-0.8,0-1.4,0.6-1.4,1.4v21.3C17,24.3,17.6,25,18.4,25 M18.4,27.8c-2.3,0-4.3-1.9-4.3-4.3c0-1,0.4-2,1.1-2.8c0.5-0.6,0.5-1.5-0.1-2
	c-0.6-0.5-1.5-0.5-2,0.1c-1.1,1.3-1.8,3-1.8,4.7c0,3.9,3.2,7.1,7.1,7.1c3.9,0,7.1-3.2,7.1-7.1c0-1.7-0.6-3.4-1.8-4.7
	c-0.5-0.6-1.4-0.6-2-0.1c-0.6,0.5-0.6,1.4-0.1,2c0.7,0.8,1.1,1.8,1.1,2.8C22.7,25.9,20.8,27.8,18.4,27.8"/>
</svg>
