<svg xmlns="http://www.w3.org/2000/svg" width="73" height="50" viewBox="0 0 73 50"><path d="M26.3 9.9c-0.3 0.9-0.5 1.7-0.7 2.6 -0.1 0.5 0 0.9 0.2 1.4 0.1 0.2 0.2 0.4 0.4 0.6 0.3 0.3 0.7 0.4 1.1 0.4 0.5 0.1 1-0.2 1.5-0.4 0.6-0.3 1-0.8 1.3-1.3 0.2-0.3 0.4-0.6 0.6-0.8 0.3-0.4 0.5-0.9 0.8-1.4 0.1-0.1 0.1-0.2 0.1-0.3 0-0.1 0.1-0.1 0.1-0.2 0.1-0.1 0.1-0.2 0.2-0.3 0-0.1 0.1-0.2 0.1-0.2s0 0 0.1 0v0.1c0 0.2-0.1 0.4-0.1 0.7 -0.1 0.9 0.1 1.8 0.5 2.6 0.2 0.3 0.4 0.6 0.8 0.8 0.1 0.1 0.3 0.1 0.4 0 0.2-0.2 0.3-0.4 0.5-0.5 0.1-0.1 0.3-0.3 0.3-0.4 0.1-0.2 0-0.4 0-0.7 -0.2 0.1-0.2-0.1-0.3-0.2 -0.1-0.2-0.1-0.4-0.2-0.5V9.3c0.1-0.5 0.2-1 0.3-1.6 0.1-0.5 0.2-0.9 0.4-1.4s0.3-1 0.5-1.4c0.2-0.5 0.6-1 0.9-1.5 0.1-0.2 0.2-0.4 0.4-0.5 0.1 0 0.2-0.2 0.2-0.3 0-0.3 0.1-0.5 0.1-0.8s-0.1-0.5-0.3-0.7L36.4 1c-0.2-0.2-0.5-0.4-0.8-0.2 -0.2-0.1-0.4-0.3-0.6-0.4 -0.5-0.2-1-0.3-1.4-0.4 -0.1 0-0.1 0-0.2 0 -0.2 0.1-0.4 0.2-0.5 0.3l-1.5 1.5c-0.6 0.6-1.1 1.2-1.6 1.9 -0.8 1.1-1.6 2.2-2.2 3.4C27.1 8 26.7 8.9 26.3 9.9zM29.3 6.9c0.2-0.3 0.4-0.6 0.6-0.9 0.2-0.3 0.4-0.6 0.6-0.9 0.3-0.4 0.7-0.8 1-1.2 0.3-0.3 0.6-0.6 0.9-0.8 0.4-0.3 0.8-0.5 1.2-0.8 0.2-0.1 0.6-0.2 0.9-0.1 -0.1 0.2-0.1 0.3-0.2 0.5 -0.5 1-1.1 1.9-1.6 2.9 -0.4 0.8-0.8 1.5-1.2 2.3 -0.5 0.9-1 1.8-1.5 2.7 -0.4 0.6-0.8 1.2-1.2 1.8 -0.2 0.3-0.5 0.6-0.8 0.8 -0.2 0.1-0.4 0.3-0.6 0.2 -0.2-0.1-0.2-0.3-0.2-0.6s0-0.6 0.1-0.8v-0.3c0.1-0.3 0.1-0.6 0.2-0.8 0.3-0.8 0.6-1.5 0.9-2.3C28.6 8 29 7.5 29.3 6.9zM15.5 14.5c0.2 0 0.4 0.1 0.6 0.1 0.5 0 0.9 0.1 1.4 0.1 0.2 0 0.5-0.1 0.7-0.1 0.3-0.1 0.5-0.2 0.8-0.3 0.1 0 0.1-0.1 0.1-0.1 0.1-0.1 0.2-0.1 0.3-0.2 0.3-0.2 0.6-0.4 0.9-0.6 0.3-0.2 0.5-0.4 0.8-0.7 0.2-0.2 0.4-0.4 0.6-0.7 0.1-0.1 0.3-0.3 0.4-0.4 0.4-0.5 0.7-1 1-1.5 0.2-0.3 0.4-0.7 0.6-1C24 8.6 24.3 8 24.5 7.5 24.8 6.7 25 6 25.3 5.2c0-0.2 0.1-0.3 0.1-0.5 0.1-0.3 0.2-0.5 0.2-0.8 0.1-0.4 0.2-0.9 0.3-1.3C26 2.2 26.1 2.1 26.5 2c0.3-0.1 0.6-0.2 0.9-0.3 0.2-0.1 0.3-0.1 0.5-0.1 0.1 0 0.2-0.1 0.1-0.2 0-0.3-0.2-0.4-0.4-0.5 -0.4-0.1-0.8 0-1.2 0 -0.2 0-0.5 0.1-0.7 0.1h-0.4c-0.3 0-0.5 0.1-0.8 0.1 -0.5 0.1-1 0.1-1.5 0.2 0 0-0.1 0-0.1 0.1 -0.1 0.1-0.1 0.5 0 0.6 0.2 0.2 0.4 0.3 0.6 0.5 0 0 0 0 0.1 0 0.1 0 0.3 0 0.4-0.1 0.2 0 0.5 0 0.7-0.1 0 0.1 0 0.2 0 0.2 -0.2 0.8-0.4 1.5-0.6 2.3 -0.3 0.9-0.5 1.8-0.9 2.7C23 8 22.7 8.5 22.4 9c-0.5 1-1.1 1.9-1.9 2.7 -0.5 0.5-1 0.9-1.6 1.2 -0.2 0.1-0.4 0.2-0.5 0.3 -0.2 0.2-0.4 0.2-0.7 0.3 -0.1 0-0.3 0-0.4 0.1 -0.5 0.1-1.1 0.2-1.6-0.1 -0.2-0.1-0.4-0.2-0.4-0.4 -0.1-0.3-0.3-0.6-0.2-1 0-0.1 0-0.1 0-0.2C15 12 15 12.2 14.9 12.2c-0.2 0-0.2 0.1-0.2 0.2 0 0 0 0.1-0.1 0.1 -0.2 0.3-0.2 0.8 0.1 1.1C14.9 14 15.2 14.3 15.5 14.5zM8.9 34.5c-0.2 0-0.3 0-0.4 0.1 -0.1 0-0.1 0.1-0.2 0.2 0 0 0 0.1-0.1 0.1C8 35 8.1 35.2 8.1 35.3c0.1 0.4 0 0.7-0.2 1 -0.2 0.3-0.5 0.6-0.8 0.9 -0.2 0.2-0.4 0.4-0.6 0.7C6.4 38 6.4 38 6.4 38.1c0 0 0 0 0.1 0 0.5-0.3 0.8-0.7 1.3-1v0.3c-0.1 0.2-0.1 0.5-0.2 0.7 -0.1 0.5-0.2 0.9-0.3 1.4C7.2 40 7.1 40.5 7 41l-0.1 0.1H6.6c-0.7 0-1.4 0.1-2 0.1 0.1-0.6 0.2-1.3 0.4-1.9 0.1-0.6 0.2-1.3 0.4-1.9 0.1-0.5 0.2-1 0.3-1.4C5.8 35.4 6 34.8 6 34.2c0-0.4-0.2-0.5-0.5-0.6 -0.2 0-0.3-0.1-0.5-0.2 -0.2-0.1-0.5-0.1-0.6 0.1 -0.1 0.1-0.2 0.3-0.2 0.4 0 0.1 0 0.1 0 0.2 0 0.1 0.1 0.2 0 0.3 -0.1 0.6-0.3 1.2-0.4 1.8 -0.3 1.4-0.5 2.7-0.8 4.1 -0.2 0.8-0.4 1.6-0.5 2.3 -0.1 0.6-0.3 1.2-0.4 1.7C2 45 1.8 45.8 1.8 46.5v1.3C1.8 48 1.9 48 2.1 48c0.2-0.1 0.5-0.1 0.7-0.2 0.1-0.1 0.1-0.2 0.1-0.3 0.3 0.1 0.4 0 0.4-0.2 0.1-0.4 0.1-0.8 0.1-1.2 0-0.3 0.1-0.6 0.1-0.9 0.1-0.4 0.3-0.7 0.4-1.1 0.1-0.4 0.2-0.8 0.3-1.2 0-0.1 0.1-0.1 0.1-0.1 0.2-0.1 0.4-0.1 0.5-0.2 0.6-0.3 1.1-0.4 1.8-0.5 0.2 0 0.2 0 0.2 0.2 -0.1 0.3-0.1 0.6-0.1 0.9 -0.1 0.6-0.2 1.2-0.3 1.8 -0.1 0.4-0.1 0.9-0.1 1.3 0 0.2 0.2 0.3 0.4 0.2 0.1-0.1 0.2-0.1 0.3-0.2 0 0 0 0 0.1 0 0-0.1 0-0.1 0-0.1 0 0 0.1 0 0.1-0.1 0 0 0 0-0.1 0 0 0 0-0.1 0.1-0.1 0.1 0.1 0.1 0.1 0.1 0.1 0.4-0.2 0.1-0.5 0.3-0.8 -0.1 0-0.1 0-0.1-0.1 0-0.2 0.1-0.3 0.1-0.5v-0.6C7.7 43.7 7.7 43.3 8 43c-0.1 0-0.1 0-0.1 0 0-0.1-0.1-0.2 0-0.2C8.1 42.7 8 42.4 8 42.3c0-0.3 0.2-0.5 0.2-0.7 0-0.1 0.1-0.2 0.1-0.3 0-0.1 0.1-0.2 0-0.3 -0.1-0.2-0.1-0.4 0-0.5 0.2-0.6 0.4-1.2 0.6-1.9 0.2-0.6 0.3-1.1 0.5-1.7 0.1-0.4 0.2-0.8 0.3-1.2 0-0.2 0.1-0.4 0.1-0.6C9.8 35 9.3 34.5 8.9 34.5zM37.3 13.7c0.1-0.1 0.2-0.1 0.3-0.2h1.2c0.1 0 0.2 0.1 0.3 0.1 0.2 0 0.3 0 0.4 0.2h0.3c0.2 0 0.4 0.1 0.6 0.1h0.1c0.1 0 0.2 0.1 0.3 0.1 -0.1 0-0.2-0.1-0.2-0.1h0.3c0.2 0 0.2 0 0.2 0.2 0.1 0 0.1 0.1 0.3 0.1 -0.1-0.1-0.1-0.1-0.1-0.1 0.5 0.1 1.1 0.2 1.6 0.3v-0.1c-0.2 0-0.3-0.1-0.5-0.1l0.1-0.1c0.3 0 0.5 0 0.8 0.1 0.3 0.1 0.5 0 0.8-0.1h0.1c0.2 0.1 0.2 0.1 0.3-0.1l0.1 0.1c0.1 0 0.1-0.1 0.2-0.1 0.2-0.1 0.4-0.1 0.6-0.2 0.2-0.1 0.4-0.2 0.6-0.3s0.5-0.3 0.7-0.4c0.1 0 0.1-0.1 0.2-0.2 0.3-0.2 0.4-0.4 0.5-0.7 -0.1 0.1-0.1 0.1-0.2 0.2 0-0.1 0-0.2 0-0.2 -0.1 0-0.3 0-0.4 0.1 -0.1 0.1-0.3 0.2-0.5 0.3 -0.9 0.3-1.8 0.3-2.7 0.2 -0.7-0.1-1.4-0.4-2.1-0.6 -0.6-0.1-1.1-0.3-1.7-0.4 -0.1 0-0.2-0.1-0.2-0.1 0.1-0.1 0.1-0.1 0.2-0.2 0 0 0-0.1 0.1-0.1 0.1-0.1 0.3-0.2 0.4-0.3 0.1-0.1 0.2-0.3 0.4-0.4 0 0 0 0 0-0.1 0.1-0.1 0.1-0.1 0.2-0.2 0.2-0.1 0.3-0.3 0.5-0.4 0.1-0.1 0.2-0.2 0.3-0.2 0.3-0.5 0.8-0.9 1.2-1.3 0 0 0 0.1 0.1 0.1 0.1-0.1 0.2-0.2 0.3-0.3 -0.1 0-0.2 0.1-0.2 0.1s0 0 0-0.1c0.1 0 0.2-0.1 0.2-0.1 0.1 0 0.2 0 0.2-0.1 0.1-0.1 0.2-0.3 0.4-0.4 0.1-0.1 0.2-0.2 0.3-0.2 0.1 0 0.1-0.1 0.1-0.2 0.1 0 0.2 0 0.2-0.1 0.1-0.2 0.2-0.3 0.3-0.5 0 0 0 0 0-0.1V6.5c0.1-0.1 0.1-0.2 0.2-0.3l0.1-0.1c-0.1-0.3 0.1-0.4 0.3-0.5l0.1-0.1c0-0.1 0.1-0.2 0.1-0.2 0.1-0.1 0.2-0.2 0.2-0.3 0 0 0-0.1 0-0.2 0 0-0.1-0.1-0.2-0.1 -0.1 0-0.3 0.1-0.5 0.1 -0.7 0.2-1.3 0.5-2 0.7S41.7 5.7 41 5.3c-0.2-0.2-0.5-0.3-0.6-0.5C40 4.4 39.5 4.2 39 4.3c-0.4 0-0.8 0.1-1 0.5l-0.1 0.1c0.1 0.2 0 0.2-0.1 0.3 0 0-0.1 0-0.1 0.1 -0.1 0.1-0.1 0.3-0.2 0.4C37.4 5.8 37.4 6 37.6 6h-0.1c0.1 0 0.3 0.2 0.3-0.1 0.3-0.1 0.6 0 0.8 0.1 0.2 0.1 0.4 0.3 0.6 0.5 0.4 0.4 0.8 0.7 1.3 0.9h0.3c0.1 0 0.2-0.1 0.2-0.1h0.8c0.1 0 0.2 0 0.4-0.1 0.1 0 0.1 0 0.2 0C42.6 7 42.9 7 43.1 7c0 0.1-0.1 0.2-0.1 0.3 -0.1 0.1-0.2 0.2-0.3 0.4 -0.1 0.1-0.3 0.2-0.4 0.3 -0.3 0.3-0.6 0.6-0.9 0.9 -0.4 0.3-0.8 0.6-1.1 1 -0.2 0.2-0.4 0.4-0.6 0.5 -0.3 0.2-0.5 0.4-0.8 0.6 -0.4 0.3-0.7 0.6-1.2 0.8 -0.1 0-0.1 0.1-0.2 0.1 -0.2 0.3-0.3 0.5-0.4 0.8 0 0.1 0 0.2-0.1 0.3 -0.3 0.3-0.1 0.6 0 0.8C37.1 13.9 37.2 13.8 37.3 13.7zM42.7 33.2c0.1-0.5 0.1-0.9 0.2-1.4 0.1 0 0.1 0 0.1 0 0.6 0 1.2-0.1 1.8-0.2 0.2-0.1 0.6 0 0.7-0.3h0.1c0.4-0.2 0.7-0.3 1-0.5 0.6-0.4 1.2-0.8 1.6-1.3 0.1-0.2 0.3-0.3 0.5-0.4 0.2-0.2 0.4-0.4 0.5-0.6 0.3-0.4 0.6-0.9 0.9-1.4s0.5-1 0.7-1.5c0.3-0.7 0.5-1.5 0.6-2.3 0.1-0.7 0-1.3-0.2-2 -0.2-1-0.5-1.7-1.2-2.3 -0.8-0.8-1.8-0.9-2.9-0.8 -0.2 0-0.5 0.1-0.7 0.1 0.1-0.2 0.1-0.4 0.1-0.6s0.1-0.3 0.1-0.5c0-0.3-0.2-0.5-0.4-0.7 -0.3-0.2-0.6-0.2-0.8 0.2 0 0 0 0.1-0.1 0.1 -0.2 0.7-0.4 1.3-0.6 2 0 0.2-0.1 0.3-0.2 0.4 -0.2 0.1-0.3 0.2-0.4 0.4 -0.5 0.6-0.8 1.2-0.8 2V22c0 0.3 0.2 0.6 0.4 0.8 0.1 0.1 0.2 0.2 0.1 0.4 -0.1 0.3-0.1 0.6-0.2 0.9 -0.1 0.7-0.3 1.4-0.4 2.1 -0.1 0.7-0.2 1.4-0.4 2.1 -0.1 0.5-0.1 0.9-0.2 1.4 0 0.1-0.1 0.2-0.2 0.2 -0.5-0.1-1-0.1-1.5-0.2 -0.4-0.1-0.8-0.1-1.2-0.3 -0.1 0-0.1-0.1-0.1-0.1 -0.1-0.1-0.1-0.3-0.1-0.3 -0.2 0-0.2-0.2-0.4-0.3 0 0-0.1 0-0.2 0 -0.1 0-0.3 0.1-0.5 0.2 0 0.2 0 0.3 0.1 0.5 0 0.2 0.1 0.3 0.2 0.5 0 0.1 0.1 0.1 0.2 0.1 0.1 0.1 0.2 0.2 0.2 0.4 0.1 0.2 0.4 0.2 0.3 0.4 0.1 0 0.1 0.1 0.2 0.1 0.2 0.1 0.3 0.4 0.5 0.4 0.5 0.2 0.9 0.3 1.4 0.5 0.2 0.1 0.4 0.1 0.6 0.1 0.1 0 0.2 0.1 0.2 0.2v0.7C42.3 33.1 42.5 33.3 42.7 33.2zM43.6 28.1c0.1-0.4 0.2-0.8 0.3-1.2 0.2-0.6 0.3-1.3 0.5-1.9 0.1-0.4 0.3-0.9 0.4-1.3 0.2-0.6 0.4-1.1 0.5-1.7 0.1-0.4 0.2-0.7 0.3-1.1 0.1-0.3 0.2-0.6 0.3-0.9 0-0.1 0.1-0.2 0.2-0.2 0.3-0.1 0.5-0.2 0.8-0.2 0.7-0.2 1.3-0.2 2-0.1 0.6 0.1 1.1 0.4 1.4 1 0.5 0.9 0.5 1.9 0.3 2.9 -0.3 1.3-0.9 2.5-1.7 3.6 -0.6 0.9-1.4 1.6-2.4 2.1 -0.7 0.4-1.5 0.6-2.3 0.7 -0.3 0-0.6 0.1-1 0.1C43.3 29.3 43.5 28.7 43.6 28.1zM30.6 33c0 0.1 0.1 0.1 0.2 0.1 0 0 0.1-0.1 0.1-0.2v-0.3c0-0.3 0.1-0.5 0.1-0.8 0-0.1 0.1-0.2 0.2-0.2 0.4 0 0.8-0.1 1.2-0.1 0.4-0.1 0.7-0.1 1.1-0.2 0.1 0 0.2-0.1 0.2-0.2 0.3-0.1 0.6-0.3 0.9-0.4 0.5-0.3 1-0.7 1.5-1 0.2-0.2 0.4-0.4 0.6-0.5 0.3-0.2 0.5-0.5 0.7-0.8l0.9-1.5c0.2-0.4 0.4-0.8 0.6-1.3 0.3-0.8 0.5-1.6 0.6-2.4 0.1-0.7 0-1.5-0.2-2.2 -0.2-0.8-0.7-1.5-1.3-2.1 -0.3-0.2-0.6-0.4-0.9-0.6 -0.7-0.3-1.4-0.3-2.2-0.2 -0.1 0-0.3 0-0.4 0.1 0-0.2 0.1-0.4 0.1-0.6 0-0.2 0.1-0.3 0-0.5 -0.1-0.4-0.3-0.6-0.7-0.7 -0.2-0.1-0.4 0-0.5 0.2 -0.1 0.2-0.1 0.4-0.2 0.5 -0.2 0.5-0.3 1.1-0.5 1.6 0 0.2-0.1 0.4-0.3 0.5 -0.1 0.1-0.2 0.2-0.3 0.2 -0.7 0.6-0.9 1.4-1 2.3 0 0.4 0.2 0.7 0.4 1 0.1 0.1 0.2 0.2 0.2 0.4 0 0.2-0.1 0.4-0.1 0.7 -0.2 1.3-0.5 2.5-0.7 3.8 -0.1 0.7-0.2 1.4-0.3 2.1 0 0.1 0 0.1-0.1 0.1h-0.6c-0.2 0-0.5 0-0.7-0.1 -0.2 0-0.4-0.1-0.6-0.1 -0.1 0-0.1 0-0.2 0 -0.1 0-0.1 0-0.2-0.1 -0.3-0.1-0.6-0.2-0.6-0.6 -0.2 0-0.3-0.1-0.4-0.2 0 0-0.1 0-0.2 0 -0.2 0-0.3 0.1-0.5 0.2 0 0.2 0.1 0.4 0.1 0.6 0 0.1 0.1 0.2 0.1 0.3 0 0.1 0 0.2 0.2 0.1L27 30c0 0.2 0.2 0.3 0.3 0.4 0.1 0.1 0.2 0.1 0.2 0.2l0.1 0.1c0.1-0.1 0.1 0.1 0.2 0.1 0.2 0.1 0.3 0.4 0.5 0.4 0.5 0.2 0.9 0.3 1.4 0.5 0.2 0.1 0.4 0.1 0.6 0.1 0.1 0 0.2 0.1 0.2 0.2 0 0.2-0.1 0.4-0.1 0.7C30.5 32.8 30.5 32.9 30.6 33zM31.6 29.1c0.2-0.7 0.3-1.3 0.5-2 0.1-0.5 0.2-1.1 0.3-1.6 0.1-0.5 0.3-1 0.5-1.5 0.2-0.6 0.4-1.2 0.6-1.9 0.2-0.6 0.3-1.2 0.5-1.8 0-0.5 0.4-0.7 0.8-0.8 0.6-0.2 1.3-0.2 2-0.2 0.4 0 0.9 0.1 1.2 0.4 0.2 0.2 0.4 0.5 0.6 0.7 0.5 0.9 0.5 1.8 0.2 2.7 -0.2 0.8-0.4 1.5-0.8 2.2 -0.4 0.8-0.9 1.5-1.5 2.2 -0.6 0.6-1.2 1.1-2 1.5 -0.6 0.3-1.2 0.5-1.8 0.5 -0.4 0.1-0.8 0.1-1.2 0.1C31.5 29.6 31.5 29.3 31.6 29.1zM51.3 45.6c-0.8 0.2-1.5 0.4-2.3 0.3 -0.9-0.1-1.6-0.5-2.1-1.2 -0.4-0.5-0.7-1.1-0.9-1.7 -0.1-0.2-0.2-0.4-0.2-0.7 -0.1-0.4-0.2-0.8-0.3-1.3 -0.1-0.3-0.2-0.6-0.3-0.9 -0.1-0.3-0.1-0.6-0.2-1 -0.1-0.3-0.1-0.5-0.2-0.8 -0.1-0.2-0.1-0.3-0.3-0.3 -0.3 0-0.5 0-0.7 0.3 -0.1 0.1-0.2 0.3-0.3 0.4 -0.4 0.8-0.8 1.6-1.1 2.4 -0.1 0.2-0.2 0.5-0.3 0.8 -0.1 0.2-0.2 0.5-0.3 0.7 -0.1 0.1-0.1 0.3-0.2 0.4h-0.1c0-0.1-0.1-0.2-0.1-0.4V40c0-0.5-0.1-1.1-0.2-1.6 0-0.2-0.1-0.3-0.2-0.5 -0.1-0.3-0.3-0.5-0.6-0.7 0 0-0.1 0-0.2 0 -0.3 0-0.6 0.1-0.9 0.4 -0.2 0.3-0.5 0.5-0.7 0.8 -0.5 0.8-0.9 1.6-1.3 2.5 -0.2 0.5-0.4 0.9-0.5 1.4 0 0 0 0.1-0.1 0.1 0-0.4-0.1-0.7-0.1-1 -0.1-0.5-0.1-0.9-0.2-1.4 0-0.3-0.1-0.5-0.1-0.8 -0.1-0.3-0.2-0.5-0.3-0.8 0-0.1 0-0.2-0.1-0.2 -0.1-0.1-0.1-0.2-0.1-0.3 0-0.1 0-0.1-0.1-0.2 -0.1-0.2-0.3-0.4-0.4-0.5 0-0.1-0.1-0.1-0.2-0.1 -0.5-0.2-0.9-0.1-1.3 0.2 -0.5 0.4-0.9 0.8-1.2 1.3 -0.1 0.2-0.3 0.4-0.4 0.6 0 0 0 0.1-0.1 0.1 0 0.1 0 0.2-0.1 0.3 -0.2 0.4-0.4 0.7-0.5 1.2 -0.1 0.3-0.3 0.6-0.1 1 0 0 0.1 0 0.1-0.1v0.2c0.1 0 0.2 0.1 0.2 0.1 0-0.1 0-0.2 0.1-0.3 0.3-0.6 0.7-1.2 1-1.8 0.1-0.2 0.3-0.3 0.4-0.5 0.1-0.1 0.3-0.1 0.5 0 0.1 0.1 0.2 0.2 0.2 0.3 0.3 0.5 0.5 1 0.6 1.5 0.2 0.8 0.3 1.6 0.4 2.4 0 0.5 0.1 1 0.1 1.5 0 0.4 0 0.7 0.1 1.1 0.1 0.5 0.1 0.9 0.2 1.3 0 0.1 0 0.1 0.1 0.2 0.1 0.1 0.1 0.1 0.1 0 0-0.1 0-0.2 0.1-0.3h0.3c0.1-0.1 0.1-0.2 0.2-0.2 0.1-0.1 0.2-0.1 0.2-0.2 0-0.2 0.2-0.3 0.3-0.4 0.1-0.2 0.2-0.4 0.3-0.6 0.1-0.2 0.3-0.5 0.3-0.7 0.1-0.7 0.4-1.4 0.5-2.2 0-0.2 0.1-0.4 0.1-0.6 0.1-0.3 0.2-0.6 0.3-0.9 0.2-0.6 0.4-1.1 0.6-1.7 0-0.1 0.1-0.1 0.1-0.2 0 0 0 0 0.1 0 0.1 0.2 0.2 0.4 0.3 0.6 0.2 0.7 0.3 1.5 0.3 2.3s0 1.6 0.1 2.4c0 0.1 0 0.3 0.1 0.4 0 0.1 0.2 0.2 0.2 0.3 0.1 0.1 0.1 0.2 0.2 0.3 0.1-0.2 0.1-0.4 0.2-0.6 0.2 0.1 0.5 0 0.6-0.2 0.1-0.2 0.3-0.3 0.4-0.5l0.9-0.9c0.2-0.2 0.3-0.4 0.4-0.6 0.1-0.1 0.2-0.3 0.2-0.4 0-0.1 0.1-0.1 0.1-0.2 0-0.3 0.2-0.5 0.4-0.7 0 0.1 0.1 0.1 0.1 0.2 0.1 0.5 0.3 1 0.4 1.6 0.2 0.6 0.3 1.2 0.5 1.7 0.2 0.7 0.6 1.2 1 1.8 0.2 0.3 0.5 0.6 0.9 0.8 0.1 0.1 0.2 0.1 0.4 0.2 0.2 0.1 0.3 0.1 0.5 0.1 0.2 0 0.3 0.1 0.5 0.1 0.1 0 0.1 0 0.2 0h0.1c0.2 0 0.4 0 0.6 0.1 0 0 0.1 0 0.1-0.1 -0.1 0-0.1 0-0.2-0.1 0.1-0.1 0.2-0.1 0.3-0.2 -0.1-0.1-0.1-0.1-0.1-0.2 0.1 0 0.2-0.1 0.3-0.1h0.4c0.2 0 0.3-0.1 0.5-0.1 0-0.1 0.2-0.2 0.3-0.2 0.1 0 0.3-0.2 0.4-0.3 0-0.2 0.1-0.2 0.2-0.2 0.1-0.1 0.3-0.1 0.3-0.2 0.1-0.1 0.2-0.3 0.2-0.5 0 0 0-0.1 0.1-0.1 0.1-0.2 0.1-0.3 0.2-0.5h-0.1C51.4 45.6 51.3 45.6 51.3 45.6zM62 18.2C62 18.2 62 18.1 62 18.2 61.9 18.1 61.9 18.2 62 18.2L62 18.2zM63.1 28.5c-0.2 0.2-0.5 0.5-0.8 0.7l-1.5 0.9c-0.4 0.2-0.7 0.4-1.2 0.4 -0.2 0-0.4 0.1-0.6 0 -0.1 0-0.2 0-0.4 0.1 -0.1 0-0.2 0-0.2-0.1s-0.1-0.2-0.2-0.2c-0.2 0-0.4-0.1-0.6-0.1 -0.6-0.1-1.1-0.3-1.5-0.8 -0.2-0.2-0.3-0.5-0.5-0.7 0-0.1-0.1-0.1 0.1-0.2 0.1 0 0.2-0.1 0.3-0.1 0.2-0.1 0.3-0.3 0.5-0.3 0.2-0.1 0.4-0.2 0.6-0.3 0.1-0.1 0.3-0.2 0.4-0.3 0.2-0.2 0.5-0.3 0.7-0.5 0.4-0.4 0.8-0.7 1.2-1.1 0.3-0.3 0.6-0.6 0.9-0.9 0.1-0.1 0.2-0.1 0.3-0.2 0 0 0.1-0.1 0.1-0.2 0.1-0.1 0.1-0.3 0.2-0.4 0 0.1 0 0.1 0 0.3 0.1-0.1 0.1-0.2 0.1-0.3 0-0.1-0.1-0.1-0.1-0.1 0-0.1 0.1-0.1 0.1-0.2 0-0.1 0.1-0.1 0.2-0.1 0.2-0.2 0.3-0.5 0.5-0.8 0.1-0.1 0.1-0.2 0.1-0.3 0.1-0.2 0.2-0.4 0.3-0.6 0.1-0.2 0.1-0.5 0.2-0.7 0-0.1 0.1-0.1 0.1-0.2 0-0.2 0.1-0.3 0.1-0.5 0-0.1 0.1-0.3-0.1-0.4v-0.1c0-0.1 0.1-0.3 0.1-0.4 0.1-0.2 0-0.5 0-0.7 -0.1-0.3-0.2-0.5-0.3-0.7 0 0.1-0.1 0.2-0.1 0.3 0 0 0 0-0.1 0 0.1-0.2-0.3-0.3-0.2-0.5h0.1v-0.3c-0.1 0-0.1-0.1-0.2-0.1 -0.1-0.1-0.2-0.1-0.3-0.2h-1.6c-0.1 0-0.1 0-0.2 0 -0.1 0-0.2 0.1-0.3 0.1 -0.1 0-0.3 0-0.3 0.2 0 0 0 0.1-0.1 0.1 -0.1 0-0.1 0-0.2 0l-0.1-0.1c-0.1 0.2-0.4 0.3-0.5 0.5 -0.1 0.2-0.4 0.2-0.6 0.3 -0.1 0-0.2 0.1-0.3 0.1 -0.3 0-0.4 0.1-0.5 0.3 0 0.1-0.1 0.2-0.2 0.3 -0.4 0.3-0.7 0.7-1.1 1 -0.2 0.2-0.3 0.4-0.5 0.6 -0.4 0.6-0.8 1.2-1.1 1.9 -0.2 0.3-0.3 0.7-0.4 1.1 -0.1 0.3-0.1 0.7-0.2 1.1v2c0 0.2 0 0.5 0.1 0.7 0.1 0.4 0.1 0.8 0.3 1.2 0.2 0.4 0.3 0.8 0.5 1.2 0.2 0.5 0.5 0.8 0.8 1.2 0 0.1 0.1 0.1 0.1 0.2 0.2 0.2 0.4 0.4 0.7 0.5 0.1 0.1 0.2 0.1 0.3 0.2 0.1 0 0.1 0.1 0.1 0.1 0.1 0.1 0.3 0.1 0.4 0.2 0.1 0 0.3 0.1 0.2 0.2 0.3 0 0.7-0.1 1 0.1 0 0 0-0.1 0.1-0.1 0.1 0 0.2 0 0.2-0.1 0.1 0 0.2-0.1 0.3 0h0.6c0.1 0 0.2-0.1 0.3-0.1 0.2-0.1 0.3-0.1 0.5-0.2h0.1c0.1 0 0.1 0 0.2 0h0.2c0 0 0.1-0.1 0.1 0 0.3 0.1 0.5-0.1 0.6-0.2 0.2-0.2 0.5-0.4 0.8-0.6 0 0 0 0 0.1 0 0 0.1 0 0.2 0 0.2 0.2-0.2 0.4-0.4 0.6-0.5 0.1-0.1 0.3-0.2 0.4-0.3 0.1 0 0.1-0.1 0.1-0.1 0-0.1 0-0.1 0.1-0.2 0.1-0.1 0.2-0.2 0.3-0.4 0.2-0.3 0.4-0.6 0.7-0.9v-0.1c0-0.1 0.1-0.2 0.1-0.4 0.1-0.3 0.2-0.5 0.4-0.8l0.1-0.1c0-0.2 0.1-0.4 0.1-0.6 0 0.1 0.1 0.1 0.1 0.1 0.1-0.4 0.3-0.9 0.5-1.3 -0.2 0.1-0.2 0.2-0.3 0.2C64.4 27.1 63.8 27.8 63.1 28.5zM55.3 26.1c-0.2-0.3 0-0.7 0.1-1 0-0.3 0.1-0.6 0.2-0.8 0.1-0.4 0.2-0.8 0.4-1.1 0.3-0.5 0.5-0.9 0.8-1.4s0.6-0.9 1-1.3c0.5-0.5 1-0.8 1.6-1.1 0.1 0 0.2-0.1 0.3-0.2 0.1 0.2 0.2 0.2 0.3 0.1 0.3-0.2 0.6-0.2 0.7 0.2 0.1 0.2 0.1 0.5 0.2 0.7v0.1c0 0.1-0.1 0.2 0 0.3 0.1 0.5-0.1 0.8-0.3 1.2 -0.4 0.7-0.9 1.3-1.5 1.8 -0.7 0.7-1.5 1.3-2.3 1.8 -0.5 0.1-0.9 0.3-1.3 0.6C55.4 26 55.4 26.1 55.3 26.1zM11.6 25.6c0-0.1 0.1-0.2 0.1-0.3 0.1-0.2 0.2-0.4 0.4-0.6 0 0 0 0.1 0.1 0.1 0.1 0.4 0.2 0.8 0.4 1.2 0.1 0.5 0.2 1 0.4 1.5 0.3 1 0.7 1.9 1.4 2.6 0.3 0.4 0.7 0.7 1.2 0.8 0.2 0 0.4 0.2 0.7 0.2h1.2c0 0 0 0 0-0.1 0.1-0.1 0.2-0.1 0.3-0.2 -0.1-0.1-0.1-0.1-0.2-0.1 0.1-0.1 0.2-0.1 0.3-0.2 0 0 0 0 0.1 0h0.3c0.2 0 0.3 0 0.5-0.1h0.1c0.1-0.2 0.2-0.2 0.4-0.2 0.1-0.1 0.3-0.1 0.4-0.3 0-0.2 0.1-0.2 0.2-0.2 0.1 0 0.3-0.1 0.3-0.2 0.2-0.2 0.2-0.5 0.3-0.8 0-0.1 0-0.2 0.1-0.3 -0.2 0.1-0.4 0.1-0.5 0.1 -0.7 0.2-1.4 0.3-2.1 0.2 -0.9-0.2-1.6-0.6-2.1-1.3 -0.5-0.7-0.8-1.5-1-2.3 -0.2-0.6-0.4-1.2-0.5-1.9 -0.1-0.2-0.1-0.5-0.1-0.7 -0.1-0.4-0.2-0.8-0.3-1.2 -0.1-0.4-0.2-0.5-0.6-0.5 -0.2 0-0.4 0-0.5 0.2L12 22.5c-0.4 0.7-0.7 1.5-1 2.3 -0.1 0.3-0.2 0.5-0.4 0.8l-0.1 0.1 -0.1-0.1c0-0.2-0.1-0.4-0.1-0.7v-1.6c0-0.5-0.1-0.9-0.1-1.4v-0.4c-0.1-0.3-0.1-0.7-0.3-1 -0.2-0.3-0.4-0.5-0.6-0.7 0 0-0.1-0.1-0.2 0 -0.2 0.1-0.5 0.1-0.7 0.3 -0.4 0.2-0.6 0.6-0.9 1 -0.6 0.8-1 1.8-1.4 2.7 -0.2 0.4-0.3 0.8-0.4 1.3 0 0 0 0-0.1 0V25c-0.1-0.6-0.1-1.1-0.2-1.7v-0.4c0-0.2-0.1-0.4-0.1-0.6s0-0.4-0.1-0.6c-0.1-0.3-0.2-0.5-0.3-0.8 0 0 0 0-0.1-0.1 0-0.1-0.1-0.1-0.1-0.2 -0.1-0.1-0.1-0.3-0.2-0.4 -0.4 0-0.5-0.2-0.6-0.3 -0.1-0.1-0.1-0.1-0.2-0.2 -0.6-0.3-1.2 0.1-1.7 0.5 -0.2 0.2-0.4 0.5-0.6 0.7l-0.6 0.9c0 0 0 0 0 0.1 -0.1 0.2-0.1 0.3-0.2 0.5 -0.1 0.3-0.3 0.5-0.4 0.8C0.1 23.5 0.1 23.7 0 24v0.1c0 0.1 0 0.2 0 0.2s0 0 0 0.1c0 0 0.1 0 0.2-0.1 0 0.1 0 0.1 0 0.2 0.1 0 0.2 0.1 0.2 0.1 0-0.1 0.1-0.2 0.1-0.3 0.3-0.6 0.6-1.2 1-1.7 0.1-0.2 0.2-0.3 0.4-0.5 0.2-0.2 0.5-0.2 0.6 0 0.2 0.2 0.3 0.5 0.4 0.8 0.3 0.7 0.5 1.5 0.5 2.3 0.1 0.6 0.2 1.3 0.2 1.9 0.1 0.6 0.1 1.2 0.2 1.8v0.5c0 0.3 0.1 0.6 0.1 0.9 0 0.1 0.1 0.2 0.1 0.3h0.1c0-0.1 0.1-0.3 0.1-0.4h0.3C4.7 30.1 4.7 30 4.8 30c0-0.1 0.2-0.2 0.2-0.2 0-0.2 0.2-0.4 0.3-0.4 0.1-0.2 0.2-0.4 0.3-0.5C5.8 28.6 6 28.2 6 27.8c0.1-0.4 0.2-0.8 0.3-1.3 0-0.1 0.1-0.3 0.1-0.4 0.1-0.4 0.1-0.8 0.3-1.2 0.2-0.6 0.4-1.1 0.6-1.7 0.1-0.2 0.2-0.5 0.3-0.7 0.1 0.1 0.1 0.1 0.2 0.2C7.9 22.8 8 23 8 23.2c0.1 0.7 0.3 1.3 0.3 2V28c0 0 0 0.1 0.1 0.1 0.1 0.1 0.2 0.2 0.2 0.3 0.1 0.1 0.1 0.2 0.2 0.3 0 0 0 0 0.1 0 0-0.1 0.2-0.2 0.1-0.4 0 0 0.1-0.2 0.2-0.2 0.2 0 0.4 0 0.5-0.2l0.1-0.1c0.1-0.1 0.1-0.1 0.2-0.2l0.1-0.1c0.3-0.3 0.6-0.5 0.8-0.8 0.2-0.2 0.4-0.5 0.5-0.7C11.5 25.8 11.6 25.7 11.6 25.6zM61.9 17.9c0 0.1 0 0.1 0 0.2C62 18 62 18 61.9 17.9zM72.9 28c-0.2 0-0.4 0.1-0.6 0.3C71.6 29 71 29.7 70 29.9c-0.4 0.1-1 0-1.2-0.3 -0.3-0.3-0.4-0.7-0.5-1.1 0-0.1 0-0.1 0-0.2 0.1-0.8 0.1-1.6 0.2-2.3 0.1-0.8 0.1-1.6 0.2-2.4 0.1-0.9 0.1-1.8 0.2-2.7 0-0.6 0.3-1.1 0.3-1.7 0.1-0.6 0.2-1.2 0.3-1.8v-2.1c0-0.5-0.2-0.9-0.3-1.4h-0.4c0 0-0.1 0-0.1 0.1 -0.1 0.3-0.2 0.7-0.2 1 0 0.8-0.1 1.7-0.1 2.5v1.2c0 0.1 0 0.3-0.1 0.4 -0.3 0.8-0.6 1.6-1 2.4 -0.4 0.7-0.7 1.4-1.1 2.1 0 0.1-0.1 0.1-0.1 0.2v1.5c0.1 0.1 0.4 0 0.5-0.1 0.2-0.4 0.4-0.8 0.7-1.3 0.2-0.4 0.4-0.8 0.6-1.1 0 0.1 0 0.2 0 0.2 0 0.2-0.1 0.3-0.1 0.5 -0.1 1-0.1 2-0.2 3.1v2.9c0 0.4 0.1 0.8 0.3 1.2 0.1 0.3 0.3 0.5 0.6 0.7 0.3 0.2 0.6 0.2 0.9 0.2 0.6 0 1.2-0.1 1.8-0.4 0.5-0.4 1-0.8 1.4-1.3 0.2-0.2 0.3-0.5 0.3-0.8C73 28.9 73 28.5 72.9 28 73 28 73 28 72.9 28zM22.8 43.5c-0.7 0.9-1.4 1.7-2.2 2.4 -0.1 0.1-0.3 0.3-0.5 0.4 -0.4 0.2-0.8 0.5-1.1 0.7s-0.6 0.3-0.8 0.5c-0.3 0.2-0.6 0.1-0.9 0.1h-0.8l-0.1-0.1c0-0.1-0.1-0.2-0.2-0.2 -0.3 0-0.5-0.1-0.8-0.1 -0.9-0.2-1.4-0.7-1.8-1.5v-0.1c0.1-0.1 0.3-0.1 0.4-0.2 0.1-0.1 0.2-0.2 0.4-0.2 0.4-0.1 0.7-0.3 1-0.5 0.2-0.1 0.3-0.2 0.5-0.4 0.4-0.3 0.8-0.6 1.1-0.9 0.1 0 0.1-0.1 0.2-0.1 0.1 0 0.2-0.1 0.3-0.2 0-0.1 0.1-0.2 0.2-0.2 0.3-0.2 0.4-0.5 0.7-0.6 0-0.2 0.2-0.2 0.3-0.3 0.1-0.1 0.1-0.1 0.2-0.2 0.1-0.2 0.1-0.3 0.2-0.5 0 0.1 0 0.1 0.1 0.2 0.1-0.1 0.1-0.2 0.1-0.3 -0.1 0-0.1 0-0.1 0 0-0.1 0-0.1 0-0.2 0.2-0.1 0.3-0.3 0.4-0.5 0.2-0.3 0.4-0.6 0.5-1 0.1-0.2 0.1-0.4 0.2-0.5 0.1-0.3 0.3-0.5 0.3-0.9 0-0.2 0.2-0.4-0.1-0.5v-0.1c0-0.1 0.1-0.2 0.1-0.4 0.1-0.2 0-0.5 0-0.8 -0.1-0.2-0.2-0.5-0.3-0.8 0 0.2-0.1 0.3-0.1 0.4 -0.1-0.1-0.1-0.2-0.2-0.3 -0.1-0.1 0-0.2 0.2-0.1 -0.1-0.1-0.1-0.2-0.1-0.3C20 35.3 20 35.4 20 35.4V35c-0.1-0.1-0.1-0.1-0.2-0.1 -0.1 0-0.1-0.1-0.2-0.1 -0.3 0-0.5-0.1-0.8-0.1s-0.7 0-1 0.1h-0.1c-0.1 0-0.1 0.1-0.2 0.1 -0.3 0-0.4 0.3-0.7 0.3 -0.1-0.1-0.1-0.2-0.3 0 -0.1 0.1-0.3 0.2-0.4 0.3 -0.1 0.1-0.3 0.2-0.5 0.3 -0.1 0.1-0.3 0.2-0.4 0.2 -0.2 0-0.3 0.1-0.4 0.2 -0.1 0.2-0.2 0.3-0.4 0.5 -0.3 0.3-0.6 0.6-0.9 0.9 -0.1 0.1-0.1 0.2-0.2 0.4 -0.5 0.6-0.9 1.2-1.2 1.9 -0.2 0.3-0.2 0.7-0.4 1 -0.2 0.4-0.3 0.8-0.3 1.2 -0.4 0.4-0.4 1-0.4 1.6 0 0.8 0.1 1.5 0.3 2.3 0.1 0.4 0.2 0.9 0.5 1.3 0.2 0.3 0.3 0.6 0.5 0.9 0 0.1 0.1 0.1 0.2 0.2 0.2 0.2 0.3 0.4 0.5 0.6 0.2 0.1 0.3 0.4 0.6 0.4 0.1 0.2 0.4 0.2 0.6 0.3 0.1 0 0.3 0 0.2 0.3 0.2-0.1 0.9-0.1 1 0.1 0.1-0.2 1.1-0.2 1.3-0.1 0.1 0 0.2-0.1 0.3-0.1 0.2-0.1 0.4-0.1 0.5-0.2 0 0 0.1 0 0.1-0.1 0.1 0 0.1 0 0.2 0H18c0 0 0.1-0.1 0.1 0 0.3 0.1 0.5-0.1 0.7-0.2 0.3-0.2 0.5-0.4 0.7-0.6h0.1v0.3c0.1-0.1 0.2-0.3 0.3-0.4 0.1-0.1 0.2-0.1 0.3-0.2 0.1-0.1 0.3-0.2 0.4-0.2 0.2 0 0.2-0.1 0.2-0.2 0 0 0-0.1 0.1-0.1 0.1-0.2 0.2-0.3 0.4-0.5 0-0.1 0-0.1 0.1-0.2 0.2-0.2 0.3-0.3 0.5-0.5 0 0 0-0.1 0.1-0.1 0-0.1 0.1-0.3 0.1-0.4 0.1-0.2 0.2-0.5 0.3-0.7 0.1 0 0.1-0.1 0.1-0.1 0-0.2 0.1-0.4 0.1-0.6 0 0.1 0.1 0.1 0.1 0.1 0.2-0.4 0.3-0.9 0.5-1.3C22.9 43.4 22.9 43.5 22.8 43.5zM13.5 42.9c-0.2 0.3-0.3 0.3-0.5 0.4 0-0.2 0-0.4 0.1-0.6 0.1-0.5 0.2-1 0.3-1.5 0 0 0 0 0-0.1 0.2-0.4 0.3-0.7 0.5-1.1 0.1-0.3 0.3-0.5 0.4-0.8 0.3-0.5 0.6-1 1-1.5 0.5-0.6 1.1-1 1.9-1.4 0.1 0 0.1 0 0.2-0.1 0.1 0 0.1-0.1 0.1-0.2 0.1 0.2 0.2 0.2 0.3 0.1 0.3-0.3 0.5-0.2 0.7 0.2 0.1 0.2 0.2 0.5 0.2 0.7 -0.1 0.4 0.1 0.8-0.1 1.2 -0.2 0.3-0.4 0.7-0.6 1 -0.6 0.8-1.3 1.5-2.1 2.1C15.1 41.9 14.3 42.4 13.5 42.9zM54.2 14.2c-0.1 0-0.3-0.1-0.5-0.1l0.1-0.1c0.3 0 0.5 0 0.8 0.1 0.2 0 0.5 0 0.8-0.1h0.1c0.2 0.1 0.3 0 0.4-0.1 0 0 0 0 0.1 0 0 0 0 0.1 0.1 0.1 0.2-0.1 0.3-0.2 0.4-0.2 0.2 0 0.2 0 0.3-0.1h0.3c0.2-0.1 0.4-0.2 0.5-0.3 0.1-0.1 0.3-0.2 0.4-0.3 0.2-0.1 0.3-0.3 0.4-0.4 0.1-0.2 0.2-0.4 0.3-0.5l-0.1 0.1V12c-0.1 0.1-0.3 0.1-0.4 0.2 -0.1 0.1-0.3 0.2-0.4 0.3 -0.8 0.3-1.6 0.4-2.5 0.2 -0.8-0.1-1.6-0.4-2.4-0.6 -0.5-0.2-1-0.3-1.6-0.4 -0.1 0-0.2-0.1-0.2-0.1 0.1-0.1 0.1-0.1 0.2-0.1 0.1-0.1 0.2-0.2 0.4-0.3 0.2-0.2 0.4-0.3 0.6-0.5l0.4-0.4c0.2-0.2 0.5-0.4 0.7-0.6 0.4-0.4 0.7-0.7 1.1-1.1l0.1 0.1c0.1-0.1 0.1-0.1 0.2-0.2 0-0.3 0.1-0.4 0.2-0.5 0.2-0.2 0.3-0.4 0.5-0.6l0.1-0.1c0.2 0 0.1-0.1 0.1-0.2 0.2 0 0.3-0.1 0.4-0.2 0-0.1 0-0.2 0.1-0.3 0 0 0.1-0.1 0-0.1 -0.1-0.2 0.1-0.3 0.2-0.4 0-0.1 0.1-0.1 0.1-0.2 0-0.1 0-0.2 0.1-0.3 0.1-0.1 0.3-0.2 0.3-0.4 0 0 0.1 0 0.1-0.1 0.1-0.1 0.3-0.3 0.2-0.5 -0.2 0-0.2-0.2-0.4-0.1 -0.1 0-0.2 0-0.2 0.1 -0.8 0.3-1.6 0.5-2.4 0.8 -0.3 0.1-0.6 0.1-0.9 0 -0.6-0.1-1-0.5-1.5-0.8 -0.4-0.3-0.9-0.6-1.4-0.5 -0.4 0.1-0.8 0.1-1 0.5 -0.1 0.1-0.1 0.2 0 0.3 -0.2 0-0.3 0.1-0.4 0.2 -0.1 0.1-0.2 0.3-0.2 0.5 -0.1 0.1-0.1 0.2 0.1 0.3 0 0.1 0 0.2 0 0.2 0.1 0.1 0.3 0 0.4-0.2 0.2 0 0.4 0.1 0.6 0.1 0 0 0 0 0 0.1l-0.1 0.1c0.1 0 0.2-0.1 0.3 0 0.1 0.1 0.2 0.2 0.4 0.3 0.5 0.4 0.9 0.8 1.5 1 0.1 0 0.3 0.1 0.3 0 0.1-0.1 0.2-0.1 0.3-0.1 0.3 0 0.6 0 0.9-0.1 0 0 0 0 0.1 0 0.2 0 0.4-0.1 0.5-0.2C54.1 7 54.3 7 54.5 7c0 0 0 0 0 0.1 -0.2 0.2-0.4 0.4-0.6 0.6l-0.7 0.7c-0.3 0.2-0.6 0.5-0.8 0.7 -0.6 0.5-1.2 1-1.8 1.5 -0.1 0.1-0.3 0.2-0.5 0.4 -0.3 0.2-0.6 0.5-0.9 0.6 -0.3 0.1-0.5 0.4-0.6 0.7 -0.1 0.2-0.1 0.4-0.2 0.6 -0.3 0.3-0.1 0.6 0 0.8 0.1 0.1 0.3 0.2 0.3 0.1 0.1-0.2 0.2-0.2 0.4-0.2h1.1c0.1 0 0.2 0.1 0.3 0.1 0.2 0 0.3 0 0.4 0.1 0.1 0 0.2 0 0.2 0 0.2 0 0.4 0.1 0.5 0.1 0.1 0 0.2 0 0.2-0.1C52.6 14 53.4 14.3 54.2 14.2zM24.6 30.2c0.1 0 0.2 0 0.4-0.1h0.9c0 0 0 0 0-0.1 0 0-0.1 0-0.1-0.1 -0.7-0.2-1.4-0.2-2.1-0.2 -0.2 0-0.2 0-0.2-0.2 0-0.1 0.1-0.1 0.1-0.2 0-0.2 0.2-0.3 0.1-0.5 0-0.2 0-0.4 0.1-0.5 0-0.1 0-0.1 0-0.2 0-0.1 0.1-0.3 0.1-0.4 0.1-0.2 0.1-0.4 0.2-0.7 0-0.1 0.1-0.1 0.1-0.2 0 0 0-0.1 0.1-0.1 0-0.1 0-0.3 0.1-0.4 0.1-0.4 0.3-0.9 0.4-1.3 0.1-0.4 0.2-0.8 0.3-1.1 0.2-0.5 0.3-1 0.5-1.6l0.1-0.1c0-0.2 0.1-0.4 0.2-0.6 0-0.1 0-0.1 0.1-0.2 0.1-0.2 0.1-0.3 0.2-0.5 0-0.1 0.1-0.2 0.2-0.2h-0.1c0-0.1 0-0.2 0.1-0.2 0.1-0.1 0.1-0.1 0-0.2 0.1-0.2 0.1-0.3 0.2-0.4 0.1-0.2 0.1-0.5 0.4-0.5 0.2 0 0.4-0.1 0.6-0.1 0.1 0 0.2-0.1 0.3-0.1 0.2 0 0.4 0 0.5-0.3l0.1-0.1c0.2 0 0.3-0.2 0.5-0.2 0.1-0.1 0.1-0.1 0.2-0.2 0 0 0 0-0.1 0 0.1-0.1 0.1-0.2 0.2-0.2 -0.2 0.1-0.3 0.2-0.4 0.2h-0.1c0-0.1-0.1-0.1-0.1-0.1 0-0.4 0.4-0.5 0.6-0.7C29.1 17.8 29 18 29 18.2c0.1-0.1 0.1-0.3 0.3-0.4 0 0.1-0.1 0.2-0.1 0.3 0.2-0.1 0.2-0.3 0.2-0.4 0.1-0.3 0-0.4-0.1-0.5 0 0 0 0.1-0.1 0.1 0 0.1-0.1 0.1-0.2 0.2 0-0.1 0-0.1 0-0.2 0 0-0.1 0-0.1 0.1 -0.6 0.5-1.2 0.9-2 1.2 -0.3 0.1-0.5 0.2-0.8-0.1 -0.2-0.2-0.6-0.1-0.7 0.2 0 0.1-0.1 0.2-0.1 0.2 -0.5 0.1-1 0.1-1.5 0.2 -0.2 0-0.4 0-0.5 0.2 -0.1 0.1-0.1 0.2-0.1 0.3 0.2 0.2 0.4 0.3 0.5 0.4 0.1 0 0.1 0.1 0.2 0.1 0.1 0 0.1 0.1 0.2 0.1 0.2 0 0.4 0 0.5-0.1 0.1 0 0.2-0.1 0.2-0.1 0.1 0 0.1 0 0.2 0 0 0.1 0 0.1 0 0.2 0 0.1-0.1 0.2-0.1 0.3 -0.1 0.3-0.2 0.7-0.3 1 -0.1 0.3-0.1 0.5-0.2 0.8 0 0.2-0.1 0.3-0.2 0.5 -0.1 0.3-0.2 0.6-0.2 0.9 -0.1 0.5-0.3 1-0.4 1.5 -0.1 0.4-0.2 0.9-0.3 1.3 -0.2 0.6-0.3 1.2-0.5 1.7 -0.1 0.3-0.2 0.6-0.3 0.8s-0.1 0.4-0.2 0.6c-0.1 0.2-0.1 0.4-0.2 0.6 0 0 0 0.1-0.1 0.1 -0.3 0.1-0.6 0.2-1 0.3 -0.3 0.1-0.5 0.5-0.3 0.7l0.1-0.1c0.1 0.1 0.3 0.2 0.4 0.2 0.2 0 0.4-0.1 0.6-0.1 0.3 0.2 0.5-0.1 0.6-0.2 0 0.1 0.1 0.1 0.1 0.2 0.3-0.4 0.3-0.4 0.4-0.3l0.1-0.1c0.2-0.1 0.5-0.1 0.7-0.2 0.1-0.1 0.3-0.1 0.4-0.2C24.4 30.3 24.5 30.3 24.6 30.2zM31.5 36.1c0.2-0.1 0.3-0.1 0.4-0.2 0 0 0 0 0.1 0 0.1 0.1 0.2 0 0.2-0.1 0.1-0.1 0.1-0.2 0.2-0.2 0 0 0.1-0.1 0.1-0.2 -0.2 0.1-0.4 0.3-0.6 0.4 -0.1-0.2-0.1-0.4 0.1-0.5 0.1-0.1 0.3-0.2 0.5-0.4 0 0.1 0 0.1 0 0.2 0 0 0.1 0 0.2-0.1 -0.1 0.1-0.1 0.2-0.1 0.3 0.1-0.1 0.2-0.1 0.2-0.2v-0.7c0-0.1-0.1-0.1-0.2 0 -0.1 0.1-0.1 0.2-0.1 0.3 -0.2-0.1 0-0.2 0-0.3 0 0-0.1 0-0.1 0.1 -0.6 0.5-1.2 1-2 1.2 -0.2 0.1-0.4 0.2-0.7 0 -0.1-0.1-0.3-0.1-0.4-0.2 -0.2 0-0.3 0.1-0.3 0.2 0 0.3-0.2 0.3-0.4 0.3 -0.5 0.1-1.1 0.1-1.6 0.2 -0.3 0-0.3 0.1-0.3 0.4 0.2 0.1 0.4 0.1 0.4 0.3 0.1 0.1 0.2 0.1 0.3 0.2 0.1 0.1 0.1 0.1 0.2 0.1 0.2-0.1 0.5-0.1 0.7-0.2 0.2 0 0.2 0 0.2 0.2 -0.1 0.4-0.2 0.8-0.3 1.2 -0.1 0.3-0.2 0.6-0.3 0.9 -0.1 0.2-0.1 0.5-0.2 0.7 -0.1 0.4-0.3 0.8-0.4 1.2 -0.1 0.2-0.1 0.4-0.2 0.6 -0.1 0.3-0.2 0.6-0.3 1 -0.2 0.6-0.3 1.1-0.5 1.7 0 0.2-0.1 0.3-0.2 0.5 -0.1 0.2-0.1 0.5-0.2 0.7 -0.1 0.4-0.3 0.8-0.4 1.3 -0.1 0.2-0.1 0.4-0.3 0.4 -0.2 0.1-0.5 0.2-0.8 0.2 -0.1 0-0.2 0.1-0.3 0.2 0 0.2-0.1 0.3 0 0.5 0.2-0.1 0.3 0.1 0.4 0.2 0.2 0 0.4-0.1 0.6-0.1 0.3 0.2 0.4-0.1 0.6-0.2 0.1 0.1 0.1 0.1 0.1 0.2 0.1-0.1 0.2-0.3 0.4-0.3 0.1-0.1 0.2-0.1 0.3-0.1l0.1-0.1c0.2 0 0.4 0 0.6-0.2 0 0 0 0 0.1 0 0.1 0 0.1-0.1 0.2-0.1 0.1 0 0.2-0.1 0.3-0.1 0.4 0 0.8-0.1 1.2-0.1h0.1c-0.1 0-0.1-0.1-0.1-0.1 -0.3-0.1-0.6-0.1-1-0.1h-1.2c-0.1 0-0.2-0.1-0.2-0.2 0.1-0.2 0.1-0.4 0.2-0.6 0.1-0.3 0.1-0.7 0.2-1 0.1-0.3 0.1-0.6 0.2-0.9 0-0.1 0.1-0.2 0.1-0.2 0-0.1 0.1-0.1 0.1-0.2 0-0.1 0-0.2 0.1-0.3 0-0.1 0.1-0.3 0.1-0.4 0.1-0.3 0.1-0.5 0.2-0.8 0.1-0.1 0.1-0.2 0.2-0.3 0.1-0.5 0.3-0.9 0.4-1.4 0.1-0.3 0.2-0.7 0.4-1l0.1-0.1c0 0-0.1-0.1 0-0.1 0.1-0.2 0.1-0.3 0.2-0.5v-0.1c0.1-0.2 0.1-0.4 0.2-0.5 0-0.1 0.1-0.1 0.1-0.2 -0.1-0.2 0.1-0.2 0.1-0.4 0 0-0.1 0-0.1-0.1 0 0 0 0 0.1 0 0.1-0.1 0.1-0.3 0.2-0.4 0.1-0.2 0.1-0.4 0.3-0.5 0.3-0.1 0.6-0.2 0.9-0.3C31.2 36.4 31.4 36.4 31.5 36.1z"/></svg>
