<svg xmlns="http://www.w3.org/2000/svg" width="124" height="40" viewBox="0 0 124 40"><path d="M35.2 2.3l-2.3-2.2H21.3L19 2.3v24.8l6.2-4.4v-6.4l3.9 2.8v8h6.2V16l-2.9-2.1 2.9-2.1C35.2 11.8 35.2 2.3 35.2 2.3zM29.1 8.8l-3.9 2.8V6.1l4 0.1L29.1 8.8zM35.7 31.5h1.4v3.8h1.4v-3.8H40v-1.2h-4.3V31.5zM43.6 30.3l-2.2 4.9h1.5l0.3-0.8h2.2l0.3 0.8h1.4L45 30.3H43.6zM43.6 33.3l0.7-1.6 0.7 1.6H43.6zM23.9 32l-1.3-1.7h-1.4v5h1.4v-2.9L24 34l1.4-1.6v2.9h1.4v-5h-1.5L23.9 32zM77.4 19.1l10.1-7.3V2.3L85.2 0H73.5l-2.3 2.3v24.8h6.2V19.1zM77.5 6.1h3.9v2.7l-3.9 2.8V6.1zM0 0l1.5 1.6v36.7L0.9 40l16.9-12.1V14.5H9.3v6.1h2.3v4.2l-3.9 2.9V6.1h3.9v2.3h6.2V2.3L15.5 0H0zM30.9 33.3h2.4v-1.1h-2.4v-0.7h2.5v-1.2h-3.9v5h4v-1.2h-2.6V33.3zM91 0l-2.3 2.2v19l8.1 5.8 8.1-5.8v-19L102.7 0H91zM98.8 18.1l-3.9 2.8V6.1h3.9V18.1zM52.7 2.3L50.4 0H38.7l-2.3 2.2V27h6.2v-6l3.9-2.8v8.9c0 0.1 6.2 0 6.2 0V2.3zM46.5 10.7l-3.9 2.8V6.1h3.9V10.7zM86.7 30.3v4.9H88v-4.9l-0.3 0.1L86.7 30.3zM80 31.5h1.4v3.8h0.1c0-0.1 0.1-0.1 0.1-0.1 0 0.1 0.1 0.1 0.1 0.1v0.1h1.1v-0.5c-0.1-0.1-0.1-0.1-0.1-0.1 0.1 0 0.1 0.1 0.1 0.1v-3.3h1.5v-1.1H80C80 30.6 80 31.5 80 31.5zM101.6 32.2l-1.1 1.1h1.3V34c-0.3 0.2-0.7 0.3-1 0.3 -1 0-1.3-0.8-1.3-1.4 0-1 0.5-1.4 1.3-1.4 0.3 0 0.8 0.1 1.1 0.5l0.9-0.8c-0.3-0.3-0.6-0.5-0.9-0.7 -0.1 0-0.1 0-0.1-0.1 -0.3-0.1-0.6-0.1-0.9-0.1h-0.5c-1.6 0.2-2.3 1.4-2.3 2.6 0 0.7 0.3 1.4 0.8 2L99 35c0.5 0.3 1 0.6 1.8 0.6 1 0 1.8-0.3 2.2-1v-2.2h-1.4V32.2zM108.5 0l-2.3 2.2v32.9l6.8 4.8 -0.6-1.7v-9.8l10.1-7.3V1.6L124 0H108.5zM116.3 18.1l-3.9 2.8V6.1h3.9V18.1zM94.2 31.3L94.1 32c0 0.2 0 0.4 0.1 1l-0.6-0.7 -0.1-0.1 -1.4-1.9h-1.2v5h1.4v-2.6l2.1 2.7h1.2v-4.9h-1.4V31.3zM70.1 21.4v-6.8L60 7.3V6.1h4v2.3h6V2.3L67.8 0H56.1l-2.2 2.3v8.3L64 17.9v3l-4-2.8v-2h-6.1v5l8.3 6L70.1 21.4zM75.2 33.3h2.4v-1.1h-2.4v-0.7h2.5v-1.2h-3.9v5h4v-1.2h-2.6V33.3zM50.8 30.3h-1.4v5h3.8v-1.2h-2.4V30.3zM61.6 32l-1.3-1.7h-1.4v5h1.4v-2.9l1.4 1.6 1.4-1.6v2.9h1.4v-5H63L61.6 32zM68.7 33.3H71v-1.1h-2.4v-0.7h2.6v-1.2h-3.9v5h4v-1.2h-2.6V33.3z"/></svg>