<svg xmlns="http://www.w3.org/2000/svg" width="78" height="30" viewBox="0 0 78 30"><path d="M27.4 10l3.4-3.4L24.3 0 18 6.2v17l6 5.9 6.7-6.7 -3.3-3.2 -3.7 3.7 -1.1-1.1V5L27.4 10zM14.8 6.2L8.6 0 1.8 6.7v16.5L0 25l4 4.1L8.1 25l-1.8-1.8v-3.7h4v3.7L8.5 25l4 4.1 4.1-4.1 -1.8-1.8V6.2zM10.3 14.7h-4V4.9l4 4V14.7zM70.9 22.9l-1.2-1.1V5l4.9 5L78 6.6 71.5 0l-6.3 6.2v17l6 5.9 6.7-6.7 -3.3-3.2L70.9 22.9zM44.6 5.8h-5.1l-5.4 12.3h4.2L34.1 30 46 13.6h-4.2L44.6 5.8zM50.6 0L47 3.6l2 1.9v18l-1.9 1.9 3.5 3.7h6.1l5.3-5.3V5.4L56.7 0H50.6zM57.4 21.2l-4 3.9V4.2l4 3.8V21.2z"/></svg>