<?xml version="1.0" encoding="utf-8"?>
<!-- Generator: Adobe Illustrator 19.0.0, SVG Export Plug-In . SVG Version: 6.00 Build 0)  -->
<svg version="1.1" id="Layer_1" xmlns="http://www.w3.org/2000/svg" xmlns:xlink="http://www.w3.org/1999/xlink" x="0px" y="0px"
	 viewBox="0 0 184.2 42.5" style="enable-background:new 0 0 184.2 42.5;" xml:space="preserve">
<style type="text/css">
	.st0{fill:#FFFFFF;}
</style>
<path id="XMLID_15_" class="st0" d="M11.2,15.2c-4.1,0-5.8,3.8-5.8,7.1c0,4.1,2,7.5,5.9,7.5c2.3,0,5.8-1.4,5.8-7.4
	C17.1,17.3,14,15.2,11.2,15.2 M5.5,10.4v2.2c1-1,2.9-2.9,6.6-2.9c1.5,0,5,0.3,7.7,3.5c1.3,1.5,3.2,4.6,3.2,9.5
	c0,1.3-0.1,4.9-2.4,8.2c-2.9,4-6.8,4.5-8.6,4.5c-1.5,0-4-0.3-6.6-2.7v9.9h-5.8V10.4H5.5z"/>
<rect id="XMLID_14_" x="26.5" y="0.4" class="st0" width="5.9" height="34.2"/>
<path id="XMLID_11_" class="st0" d="M51.9,22.5c-1,0.5-2.4,1-4.6,1.4c-2.7,0.4-5.3,0.9-5.3,3.3c0,1.6,1.1,3,4,3
	c2.7,0,5.9-1.4,5.9-4.4C51.9,25.8,51.9,22.5,51.9,22.5z M51.9,34.6l-0.1-1.9c-1.6,1.3-4.2,2.5-7.1,2.5c-5.5,0-8.8-3.3-8.8-7.4
	c0-5.3,4-7.4,8.6-8.2c3.6-0.7,5.9-1.3,7.4-1.8c0-1.8-0.5-3.6-4.2-3.6c-4.4,0-4.9,2.4-4.9,3.6L37,17.4c0.1-1.6,0.4-7.8,10.6-7.8
	c7.1,0,10.2,2.6,10.2,6.9v14.1c0,1.8,0.1,2.4,1.1,3.9L51.9,34.6L51.9,34.6z"/>
<path id="XMLID_10_" class="st0" d="M81.6,10.4l-6.4,22.1c-0.9,3.1-2.1,7.4-4.1,9c-1.5,1.2-3,1.5-4.9,1.5c-1.8,0-2.5-0.1-3.4-0.3v-5
	c0.6,0.1,1.1,0.1,1.6,0.1c3.2,0,3.7-1.9,3.9-2.6l-8.8-24.7h6.2l5.4,18.1l4.5-18.1h6V10.4z"/>
<path id="XMLID_7_" class="st0" d="M96.6,15.2c-4.1,0-5.8,3.8-5.8,7.1c0,4.1,2,7.5,5.9,7.5c2.3,0,5.8-1.4,5.8-7.4
	C102.5,17.3,99.4,15.2,96.6,15.2 M90.8,10.4v2.2c1-1,2.9-2.9,6.6-2.9c1.5,0,5,0.3,7.7,3.5c1.3,1.5,3.2,4.6,3.2,9.5
	c0,1.3-0.1,4.9-2.4,8.2c-2.9,4-6.8,4.5-8.6,4.5c-1.4,0-4-0.3-6.6-2.7v9.9H85V10.4H90.8z"/>
<path id="XMLID_4_" class="st0" d="M127.4,22.5c-1,0.5-2.4,1-4.6,1.4c-2.7,0.4-5.3,0.9-5.3,3.3c0,1.6,1.1,3,4,3
	c2.7,0,5.9-1.4,5.9-4.4V22.5z M127.4,34.6l-0.1-1.9c-1.6,1.3-4.2,2.5-7.1,2.5c-5.5,0-8.8-3.3-8.8-7.4c0-5.3,4-7.4,8.6-8.2
	c3.6-0.7,5.9-1.3,7.4-1.8c0-1.8-0.5-3.6-4.2-3.6c-4.4,0-4.9,2.4-4.9,3.6l-5.9-0.3c0.1-1.6,0.4-7.8,10.6-7.8c7.1,0,10.2,2.6,10.2,6.9
	v14.1c0,1.8,0.1,2.4,1.1,3.9C134.3,34.6,127.4,34.6,127.4,34.6z"/>
<path id="XMLID_3_" class="st0" d="M154.4,18c-1.3-2.6-3.8-3.7-6.6-3.7c-1.1,0-4,0.3-4,2.5c0,1.6,1.4,2.1,4.9,2.7l3.9,0.7
	c3.7,0.7,6.5,2.9,6.5,6.8c0,4.5-4.2,8.3-10.9,8.3s-10.3-3-11.6-4.4l4.4-3.5c1.2,1.5,3.3,3.1,7,3.1c3.5,0,4.7-1.8,4.7-2.9
	c0-1.4-1.4-1.9-3.6-2.3l-3-0.5c-1.9-0.3-8.4-1.5-8.4-7.3c0-4.8,4.6-7.9,10.4-7.9c1.9,0,6.8,0.3,10.4,4.5L154.4,18z"/>
<path id="XMLID_2_" class="st0" d="M179.2,18c-1.3-2.6-3.8-3.7-6.6-3.7c-1.1,0-4,0.3-4,2.5c0,1.6,1.4,2.1,4.9,2.7l3.9,0.7
	c3.7,0.7,6.5,2.9,6.5,6.8c0,4.5-4.2,8.3-10.9,8.3s-10.3-3-11.6-4.4l4.4-3.5c1.2,1.5,3.3,3.1,7,3.1c3.5,0,4.7-1.8,4.7-2.9
	c0-1.4-1.4-1.9-3.6-2.3l-3-0.5c-1.9-0.3-8.4-1.5-8.4-7.3c0-4.8,4.6-7.9,10.4-7.9c1.9,0,6.8,0.3,10.4,4.5L179.2,18z"/>
</svg>
