<?xml version="1.0" encoding="utf-8"?>
<!-- Generator: Adobe Illustrator 19.0.0, SVG Export Plug-In . SVG Version: 6.00 Build 0)  -->
<svg version="1.1" id="Layer_1" xmlns="http://www.w3.org/2000/svg" xmlns:xlink="http://www.w3.org/1999/xlink" x="0px" y="0px"
	 viewBox="0 0 73.7 42.5" style="enable-background:new 0 0 73.7 42.5;" xml:space="preserve">
<style type="text/css">
	.st0{fill:#161C21;}
</style>
<path id="XMLID_3_" class="st0" d="M48.1,26c0-0.3,0.1-0.6,0.1-0.9c0-2.6-1.8-4.9-4.3-5.5V9.9l12.8-4.6v23.1L48.1,26z M42.5,22.3
	c1.6,0,2.8,1.3,2.8,2.8S44.1,28,42.5,28c-1.6,0-2.8-1.3-2.8-2.8S41,22.3,42.5,22.3 M29.8,18c1.6,0,2.8,1.3,2.8,2.8s-1.3,2.8-2.8,2.8
	s-2.8-1.3-2.8-2.8S28.2,18,29.8,18 M2.8,28.3V5.3l12.8,4.6v9.7c-2.4,0.6-4.3,2.8-4.3,5.5c0,0.3,0,0.6,0.1,0.9L2.8,28.3z M19.8,25.1
	c0,1.6-1.3,2.8-2.8,2.8s-2.8-1.3-2.8-2.8s1.3-2.8,2.8-2.8S19.8,23.6,19.8,25.1 M58.3,3c-0.8-0.5-1.7-0.7-2.6-0.3L43,7.3
	c-1.1,0.4-1.9,1.5-1.9,2.7v9.7c-2.4,0.6-4.3,2.8-4.3,5.5c0,2,1.1,3.8,2.7,4.8c-0.6,0.2-1.2,0.5-1.7,0.9c-0.8-2.4-2.7-4.3-5-5.1
	c1.6-1,2.7-2.8,2.7-4.8c0-3.1-2.5-5.7-5.7-5.7c-3.1,0-5.7,2.5-5.7,5.7c0,2,1.1,3.8,2.7,4.8c-2.3,0.9-4.2,2.8-5,5.1
	c-0.5-0.4-1.1-0.7-1.7-0.9c1.6-1,2.7-2.8,2.7-4.8c0-2.6-1.8-4.9-4.3-5.5V9.9c0-1.2-0.8-2.3-1.9-2.7L3.8,2.6c-1.3-0.5-2.8,0-3.5,1.3
	C0.1,4.4,0,4.8,0,5.3v22.9c0,0.7,0.2,1.5,0.7,2c0.6,0.6,1.3,0.9,2.1,0.9c0.3,0,0.5,0,0.8-0.1l9-2.4c0.4,0.5,0.9,1,1.5,1.3
	c-3.2,1.2-5.5,4.3-5.5,7.9c0,0.8,0.6,1.4,1.4,1.4c0.8,0,1.4-0.6,1.4-1.4c0-3.1,2.5-5.7,5.7-5.7c3.1,0,5.7,2.5,5.7,5.7
	c0,0.8,0.6,1.4,1.4,1.4c0.8,0,1.4-0.6,1.4-1.4c0-1.7-0.5-3.3-1.4-4.7c0.2-2.9,2.7-5.3,5.6-5.3c3,0,5.4,2.3,5.6,5.3
	c-0.9,1.3-1.4,2.9-1.4,4.7c0,0.8,0.6,1.4,1.4,1.4c0.8,0,1.4-0.6,1.4-1.4c0-3.1,2.5-5.7,5.7-5.7c3.1,0,5.7,2.5,5.7,5.7
	c0,0.8,0.6,1.4,1.4,1.4c0.8,0,1.4-0.6,1.4-1.4c0-3.6-2.3-6.7-5.5-7.9c0.6-0.3,1.1-0.8,1.5-1.3l9,2.4c0.2,0.1,0.5,0.1,0.8,0.1
	c0.6,0,1.2-0.2,1.7-0.6c0.7-0.5,1.1-1.4,1.1-2.3V5.3C59.5,4.4,59.1,3.5,58.3,3"/>
</svg>
