<?xml version="1.0" encoding="utf-8"?>
<!-- Generator: Adobe Illustrator 19.0.0, SVG Export Plug-In . SVG Version: 6.00 Build 0)  -->
<svg version="1.1" id="Layer_1" xmlns="http://www.w3.org/2000/svg" xmlns:xlink="http://www.w3.org/1999/xlink" x="0px" y="0px"
	 viewBox="0 0 73.7 42.5" style="enable-background:new 0 0 73.7 42.5;" xml:space="preserve">
<style type="text/css">
	.st0{fill:#161C21;}
</style>
<path id="XMLID_2_" class="st0" d="M68,38.8H34c-1.6,0-2.8-1.3-2.8-2.8v-6.4c1.2-0.6,3.7-0.6,7.6-0.6l0.9,0c3.5,0,5.4-2.8,5.6-5.8
	h25.5V36C70.9,37.5,69.6,38.8,68,38.8 M34,13.3h34c1.6,0,2.8,1.3,2.8,2.8H39.7h-8.5C31.2,14.6,32.5,13.3,34,13.3 M68,10.4H41.8
	c-2.9-3.3-9-9.9-12-9.9c-2.9,0-19.7,3.8-21.6,4.3C7.4,5,6.9,5.8,7.1,6.5c0.2,0.8,0.9,1.2,1.7,1.1c7.3-1.7,19-4.2,20.9-4.2
	c1.1,0.1,4.5,3.1,8.2,7.1H34c-3.1,0-5.7,2.5-5.7,5.7h-5.7c-0.8,0-1.4,0.6-1.4,1.4c0,0.8,0.6,1.4,1.4,1.4h17c2.2,0,2.8,2.3,2.8,3.6
	s-0.6,3.6-2.8,3.6l-0.9,0c-5.5,0-8.2,0-10,1.7c0,0,0,0,0,0c-1.3,1.3-3.8,3.8-10.3,3.8c-6.6,0-16.2-5.4-16.3-5.4
	c-0.7-0.4-1.5-0.1-1.9,0.5S0,28.3,0.7,28.7c0.4,0.2,10.3,5.8,17.7,5.8c4.9,0,8-1.3,9.9-2.6v4c0,3.1,2.5,5.7,5.7,5.7h34
	c3.1,0,5.7-2.5,5.7-5.7V16.1C73.7,13,71.2,10.4,68,10.4"/>
</svg>
