<?xml version="1.0" encoding="utf-8"?>
<!-- Generator: Adobe Illustrator 19.0.0, SVG Export Plug-In . SVG Version: 6.00 Build 0)  -->
<svg version="1.1" id="Layer_1" xmlns="http://www.w3.org/2000/svg" xmlns:xlink="http://www.w3.org/1999/xlink" x="0px" y="0px"
	 viewBox="-258 395.9 78 50" style="enable-background:new -258 395.9 78 50;" xml:space="preserve">
<path d="M-230.6,415.9l3.4-3.4l-6.5-6.6l-6.3,6.2v17l6,5.9l6.7-6.7l-3.3-3.2l-3.7,3.7l-1.1-1.1v-16.8L-230.6,415.9z M-243.2,412.1
	l-6.2-6.2l-6.8,6.7v16.5l-1.8,1.8l4,4.1l4.1-4.1l-1.8-1.8v-3.7h4v3.7l-1.8,1.8l4,4.1l4.1-4.1l-1.8-1.8V412.1z M-247.7,420.6h-4v-9.8
	l4,4V420.6z M-187.1,428.8l-1.2-1.1v-16.8l4.9,5l3.4-3.4l-6.5-6.6l-6.3,6.2v17l6,5.9l6.7-6.7l-3.3-3.2L-187.1,428.8z M-213.4,411.7
	h-5.1l-5.4,12.3h4.2l-4.2,11.9l11.9-16.4h-4.2L-213.4,411.7z M-207.4,405.9l-3.6,3.6l2,1.9v18l-1.9,1.9l3.5,3.7h6.1l5.3-5.3v-18.4
	l-5.3-5.4H-207.4z M-200.6,427.1l-4,3.9v-20.9l4,3.8V427.1z"/>
</svg>
