<?xml version="1.0" encoding="utf-8"?>
<!-- Generator: Adobe Illustrator 19.0.0, SVG Export Plug-In . SVG Version: 6.00 Build 0)  -->
<svg version="1.1" id="Layer_1" xmlns="http://www.w3.org/2000/svg" xmlns:xlink="http://www.w3.org/1999/xlink" x="0px" y="0px"
	 viewBox="-261 395.9 73 50" style="enable-background:new -261 395.9 73 50;" xml:space="preserve">
<style type="text/css">
	.st0{fill:#E94D6F;}
</style>
<path class="st0" d="M-234.7,405.8c-0.3,0.9-0.5,1.7-0.7,2.6c-0.1,0.5,0,0.9,0.2,1.4c0.1,0.2,0.2,0.4,0.4,0.6
	c0.3,0.3,0.7,0.4,1.1,0.4c0.5,0.1,1-0.2,1.5-0.4c0.6-0.3,1-0.8,1.3-1.3c0.2-0.3,0.4-0.6,0.6-0.8c0.3-0.4,0.5-0.9,0.8-1.4
	c0.1-0.1,0.1-0.2,0.1-0.3s0.1-0.1,0.1-0.2c0.1-0.1,0.1-0.2,0.2-0.3c0-0.1,0.1-0.2,0.1-0.2s0,0,0.1,0v0.1c0,0.2-0.1,0.4-0.1,0.7
	c-0.1,0.9,0.1,1.8,0.5,2.6c0.2,0.3,0.4,0.6,0.8,0.8c0.1,0.1,0.3,0.1,0.4,0c0.2-0.2,0.3-0.4,0.5-0.5c0.1-0.1,0.3-0.3,0.3-0.4
	c0.1-0.2,0-0.4,0-0.7c-0.2,0.1-0.2-0.1-0.3-0.2c-0.1-0.2-0.1-0.4-0.2-0.5v-2.6c0.1-0.5,0.2-1,0.3-1.6c0.1-0.5,0.2-0.9,0.4-1.4
	s0.3-1,0.5-1.4c0.2-0.5,0.6-1,0.9-1.5c0.1-0.2,0.2-0.4,0.4-0.5c0.1,0,0.2-0.2,0.2-0.3c0-0.3,0.1-0.5,0.1-0.8s-0.1-0.5-0.3-0.7
	l-0.1-0.1c-0.2-0.2-0.5-0.4-0.8-0.2c-0.2-0.1-0.4-0.3-0.6-0.4c-0.5-0.2-1-0.3-1.4-0.4c-0.1,0-0.1,0-0.2,0c-0.2,0.1-0.4,0.2-0.5,0.3
	l-1.5,1.5c-0.6,0.6-1.1,1.2-1.6,1.9c-0.8,1.1-1.6,2.2-2.2,3.4C-233.9,403.9-234.3,404.8-234.7,405.8z M-231.7,402.8
	c0.2-0.3,0.4-0.6,0.6-0.9c0.2-0.3,0.4-0.6,0.6-0.9c0.3-0.4,0.7-0.8,1-1.2c0.3-0.3,0.6-0.6,0.9-0.8c0.4-0.3,0.8-0.5,1.2-0.8
	c0.2-0.1,0.6-0.2,0.9-0.1c-0.1,0.2-0.1,0.3-0.2,0.5c-0.5,1-1.1,1.9-1.6,2.9c-0.4,0.8-0.8,1.5-1.2,2.3c-0.5,0.9-1,1.8-1.5,2.7
	c-0.4,0.6-0.8,1.2-1.2,1.8c-0.2,0.3-0.5,0.6-0.8,0.8c-0.2,0.1-0.4,0.3-0.6,0.2c-0.2-0.1-0.2-0.3-0.2-0.6s0-0.6,0.1-0.8v-0.3
	c0.1-0.3,0.1-0.6,0.2-0.8c0.3-0.8,0.6-1.5,0.9-2.3C-232.4,403.9-232,403.4-231.7,402.8z M-245.5,410.4c0.2,0,0.4,0.1,0.6,0.1
	c0.5,0,0.9,0.1,1.4,0.1c0.2,0,0.5-0.1,0.7-0.1c0.3-0.1,0.5-0.2,0.8-0.3c0.1,0,0.1-0.1,0.1-0.1c0.1-0.1,0.2-0.1,0.3-0.2
	c0.3-0.2,0.6-0.4,0.9-0.6c0.3-0.2,0.5-0.4,0.8-0.7c0.2-0.2,0.4-0.4,0.6-0.7c0.1-0.1,0.3-0.3,0.4-0.4c0.4-0.5,0.7-1,1-1.5
	c0.2-0.3,0.4-0.7,0.6-1c0.3-0.5,0.6-1.1,0.8-1.6c0.3-0.8,0.5-1.5,0.8-2.3c0-0.2,0.1-0.3,0.1-0.5c0.1-0.3,0.2-0.5,0.2-0.8
	c0.1-0.4,0.2-0.9,0.3-1.3c0.1-0.4,0.2-0.5,0.6-0.6c0.3-0.1,0.6-0.2,0.9-0.3c0.2-0.1,0.3-0.1,0.5-0.1c0.1,0,0.2-0.1,0.1-0.2
	c0-0.3-0.2-0.4-0.4-0.5c-0.4-0.1-0.8,0-1.2,0c-0.2,0-0.5,0.1-0.7,0.1h-0.4c-0.3,0-0.5,0.1-0.8,0.1c-0.5,0.1-1,0.1-1.5,0.2
	c0,0-0.1,0-0.1,0.1c-0.1,0.1-0.1,0.5,0,0.6c0.2,0.2,0.4,0.3,0.6,0.5c0,0,0,0,0.1,0c0.1,0,0.3,0,0.4-0.1c0.2,0,0.5,0,0.7-0.1
	c0,0.1,0,0.2,0,0.2c-0.2,0.8-0.4,1.5-0.6,2.3c-0.3,0.9-0.5,1.8-0.9,2.7c-0.2,0.5-0.5,1-0.8,1.5c-0.5,1-1.1,1.9-1.9,2.7
	c-0.5,0.5-1,0.9-1.6,1.2c-0.2,0.1-0.4,0.2-0.5,0.3c-0.2,0.2-0.4,0.2-0.7,0.3c-0.1,0-0.3,0-0.4,0.1c-0.5,0.1-1.1,0.2-1.6-0.1
	c-0.2-0.1-0.4-0.2-0.4-0.4c-0.1-0.3-0.3-0.6-0.2-1c0-0.1,0-0.1,0-0.2c-0.1,0.1-0.1,0.3-0.2,0.3c-0.2,0-0.2,0.1-0.2,0.2
	c0,0,0,0.1-0.1,0.1c-0.2,0.3-0.2,0.8,0.1,1.1C-246.1,409.9-245.8,410.2-245.5,410.4z M-252.1,430.4c-0.2,0-0.3,0-0.4,0.1
	c-0.1,0-0.1,0.1-0.2,0.2c0,0,0,0.1-0.1,0.1c-0.2,0.1-0.1,0.3-0.1,0.4c0.1,0.4,0,0.7-0.2,1c-0.2,0.3-0.5,0.6-0.8,0.9
	c-0.2,0.2-0.4,0.4-0.6,0.7c-0.1,0.1-0.1,0.1-0.1,0.2c0,0,0,0,0.1,0c0.5-0.3,0.8-0.7,1.3-1v0.3c-0.1,0.2-0.1,0.5-0.2,0.7
	c-0.1,0.5-0.2,0.9-0.3,1.4c-0.1,0.5-0.2,1-0.3,1.5l-0.1,0.1h-0.3c-0.7,0-1.4,0.1-2,0.1c0.1-0.6,0.2-1.3,0.4-1.9
	c0.1-0.6,0.2-1.3,0.4-1.9c0.1-0.5,0.2-1,0.3-1.4c0.1-0.6,0.3-1.2,0.3-1.8c0-0.4-0.2-0.5-0.5-0.6c-0.2,0-0.3-0.1-0.5-0.2
	c-0.2-0.1-0.5-0.1-0.6,0.1c-0.1,0.1-0.2,0.3-0.2,0.4s0,0.1,0,0.2c0,0.1,0.1,0.2,0,0.3c-0.1,0.6-0.3,1.2-0.4,1.8
	c-0.3,1.4-0.5,2.7-0.8,4.1c-0.2,0.8-0.4,1.6-0.5,2.3c-0.1,0.6-0.3,1.2-0.4,1.7c-0.1,0.7-0.3,1.5-0.3,2.2v1.3c0,0.2,0.1,0.2,0.3,0.2
	c0.2-0.1,0.5-0.1,0.7-0.2c0.1-0.1,0.1-0.2,0.1-0.3c0.3,0.1,0.4,0,0.4-0.2c0.1-0.4,0.1-0.8,0.1-1.2c0-0.3,0.1-0.6,0.1-0.9
	c0.1-0.4,0.3-0.7,0.4-1.1s0.2-0.8,0.3-1.2c0-0.1,0.1-0.1,0.1-0.1c0.2-0.1,0.4-0.1,0.5-0.2c0.6-0.3,1.1-0.4,1.8-0.5
	c0.2,0,0.2,0,0.2,0.2c-0.1,0.3-0.1,0.6-0.1,0.9c-0.1,0.6-0.2,1.2-0.3,1.8c-0.1,0.4-0.1,0.9-0.1,1.3c0,0.2,0.2,0.3,0.4,0.2
	c0.1-0.1,0.2-0.1,0.3-0.2c0,0,0,0,0.1,0c0-0.1,0-0.1,0-0.1s0.1,0,0.1-0.1c0,0,0,0-0.1,0c0,0,0-0.1,0.1-0.1c0.1,0.1,0.1,0.1,0.1,0.1
	c0.4-0.2,0.1-0.5,0.3-0.8c-0.1,0-0.1,0-0.1-0.1c0-0.2,0.1-0.3,0.1-0.5V440c0.1-0.4,0.1-0.8,0.4-1.1c-0.1,0-0.1,0-0.1,0
	c0-0.1-0.1-0.2,0-0.2c0.2-0.1,0.1-0.4,0.1-0.5c0-0.3,0.2-0.5,0.2-0.7c0-0.1,0.1-0.2,0.1-0.3s0.1-0.2,0-0.3c-0.1-0.2-0.1-0.4,0-0.5
	c0.2-0.6,0.4-1.2,0.6-1.9c0.2-0.6,0.3-1.1,0.5-1.7c0.1-0.4,0.2-0.8,0.3-1.2c0-0.2,0.1-0.4,0.1-0.6
	C-251.2,430.9-251.7,430.4-252.1,430.4z M-223.7,409.6c0.1-0.1,0.2-0.1,0.3-0.2h1.2c0.1,0,0.2,0.1,0.3,0.1c0.2,0,0.3,0,0.4,0.2h0.3
	c0.2,0,0.4,0.1,0.6,0.1h0.1c0.1,0,0.2,0.1,0.3,0.1c-0.1,0-0.2-0.1-0.2-0.1h0.3c0.2,0,0.2,0,0.2,0.2c0.1,0,0.1,0.1,0.3,0.1
	c-0.1-0.1-0.1-0.1-0.1-0.1c0.5,0.1,1.1,0.2,1.6,0.3v-0.1c-0.2,0-0.3-0.1-0.5-0.1l0.1-0.1c0.3,0,0.5,0,0.8,0.1c0.3,0.1,0.5,0,0.8-0.1
	h0.1c0.2,0.1,0.2,0.1,0.3-0.1l0.1,0.1c0.1,0,0.1-0.1,0.2-0.1c0.2-0.1,0.4-0.1,0.6-0.2c0.2-0.1,0.4-0.2,0.6-0.3
	c0.2-0.1,0.5-0.3,0.7-0.4c0.1,0,0.1-0.1,0.2-0.2c0.3-0.2,0.4-0.4,0.5-0.7c-0.1,0.1-0.1,0.1-0.2,0.2c0-0.1,0-0.2,0-0.2
	c-0.1,0-0.3,0-0.4,0.1s-0.3,0.2-0.5,0.3c-0.9,0.3-1.8,0.3-2.7,0.2c-0.7-0.1-1.4-0.4-2.1-0.6c-0.6-0.1-1.1-0.3-1.7-0.4
	c-0.1,0-0.2-0.1-0.2-0.1c0.1-0.1,0.1-0.1,0.2-0.2c0,0,0-0.1,0.1-0.1c0.1-0.1,0.3-0.2,0.4-0.3c0.1-0.1,0.2-0.3,0.4-0.4c0,0,0,0,0-0.1
	c0.1-0.1,0.1-0.1,0.2-0.2c0.2-0.1,0.3-0.3,0.5-0.4c0.1-0.1,0.2-0.2,0.3-0.2c0.3-0.5,0.8-0.9,1.2-1.3c0,0,0,0.1,0.1,0.1
	c0.1-0.1,0.2-0.2,0.3-0.3c-0.1,0-0.2,0.1-0.2,0.1s0,0,0-0.1c0.1,0,0.2-0.1,0.2-0.1c0.1,0,0.2,0,0.2-0.1c0.1-0.1,0.2-0.3,0.4-0.4
	c0.1-0.1,0.2-0.2,0.3-0.2c0.1,0,0.1-0.1,0.1-0.2c0.1,0,0.2,0,0.2-0.1c0.1-0.2,0.2-0.3,0.3-0.5c0,0,0,0,0-0.1v-0.1
	c0.1-0.1,0.1-0.2,0.2-0.3l0.1-0.1c-0.1-0.3,0.1-0.4,0.3-0.5l0.1-0.1c0-0.1,0.1-0.2,0.1-0.2c0.1-0.1,0.2-0.2,0.2-0.3c0,0,0-0.1,0-0.2
	c0,0-0.1-0.1-0.2-0.1c-0.1,0-0.3,0.1-0.5,0.1c-0.7,0.2-1.3,0.5-2,0.7c-0.7,0.2-1.4,0.2-2.1-0.2c-0.2-0.2-0.5-0.3-0.6-0.5
	c-0.4-0.4-0.9-0.6-1.4-0.5c-0.4,0-0.8,0.1-1,0.5l-0.1,0.1c0.1,0.2,0,0.2-0.1,0.3c0,0-0.1,0-0.1,0.1c-0.1,0.1-0.1,0.3-0.2,0.4
	s-0.1,0.3,0.1,0.3h-0.1c0.1,0,0.3,0.2,0.3-0.1c0.3-0.1,0.6,0,0.8,0.1c0.2,0.1,0.4,0.3,0.6,0.5c0.4,0.4,0.8,0.7,1.3,0.9h0.3
	c0.1,0,0.2-0.1,0.2-0.1h0.8c0.1,0,0.2,0,0.4-0.1c0.1,0,0.1,0,0.2,0c0.2-0.2,0.5-0.2,0.7-0.2c0,0.1-0.1,0.2-0.1,0.3
	c-0.1,0.1-0.2,0.2-0.3,0.4c-0.1,0.1-0.3,0.2-0.4,0.3c-0.3,0.3-0.6,0.6-0.9,0.9c-0.4,0.3-0.8,0.6-1.1,1c-0.2,0.2-0.4,0.4-0.6,0.5
	c-0.3,0.2-0.5,0.4-0.8,0.6c-0.4,0.3-0.7,0.6-1.2,0.8c-0.1,0-0.1,0.1-0.2,0.1c-0.2,0.3-0.3,0.5-0.4,0.8c0,0.1,0,0.2-0.1,0.3
	c-0.3,0.3-0.1,0.6,0,0.8C-223.9,409.8-223.8,409.7-223.7,409.6z M-218.3,429.1c0.1-0.5,0.1-0.9,0.2-1.4c0.1,0,0.1,0,0.1,0
	c0.6,0,1.2-0.1,1.8-0.2c0.2-0.1,0.6,0,0.7-0.3h0.1c0.4-0.2,0.7-0.3,1-0.5c0.6-0.4,1.2-0.8,1.6-1.3c0.1-0.2,0.3-0.3,0.5-0.4
	c0.2-0.2,0.4-0.4,0.5-0.6c0.3-0.4,0.6-0.9,0.9-1.4c0.3-0.5,0.5-1,0.7-1.5c0.3-0.7,0.5-1.5,0.6-2.3c0.1-0.7,0-1.3-0.2-2
	c-0.2-1-0.5-1.7-1.2-2.3c-0.8-0.8-1.8-0.9-2.9-0.8c-0.2,0-0.5,0.1-0.7,0.1c0.1-0.2,0.1-0.4,0.1-0.6c0-0.2,0.1-0.3,0.1-0.5
	c0-0.3-0.2-0.5-0.4-0.7c-0.3-0.2-0.6-0.2-0.8,0.2c0,0,0,0.1-0.1,0.1c-0.2,0.7-0.4,1.3-0.6,2c0,0.2-0.1,0.3-0.2,0.4
	c-0.2,0.1-0.3,0.2-0.4,0.4c-0.5,0.6-0.8,1.2-0.8,2v0.4c0,0.3,0.2,0.6,0.4,0.8c0.1,0.1,0.2,0.2,0.1,0.4c-0.1,0.3-0.1,0.6-0.2,0.9
	c-0.1,0.7-0.3,1.4-0.4,2.1c-0.1,0.7-0.2,1.4-0.4,2.1c-0.1,0.5-0.1,0.9-0.2,1.4c0,0.1-0.1,0.2-0.2,0.2c-0.5-0.1-1-0.1-1.5-0.2
	c-0.4-0.1-0.8-0.1-1.2-0.3c-0.1,0-0.1-0.1-0.1-0.1c-0.1-0.1-0.1-0.3-0.1-0.3c-0.2,0-0.2-0.2-0.4-0.3c0,0-0.1,0-0.2,0
	c-0.1,0-0.3,0.1-0.5,0.2c0,0.2,0,0.3,0.1,0.5c0,0.2,0.1,0.3,0.2,0.5c0,0.1,0.1,0.1,0.2,0.1c0.1,0.1,0.2,0.2,0.2,0.4
	c0.1,0.2,0.4,0.2,0.3,0.4c0.1,0,0.1,0.1,0.2,0.1c0.2,0.1,0.3,0.4,0.5,0.4c0.5,0.2,0.9,0.3,1.4,0.5c0.2,0.1,0.4,0.1,0.6,0.1
	c0.1,0,0.2,0.1,0.2,0.2v0.7C-218.7,429-218.5,429.2-218.3,429.1z M-217.4,424c0.1-0.4,0.2-0.8,0.3-1.2c0.2-0.6,0.3-1.3,0.5-1.9
	c0.1-0.4,0.3-0.9,0.4-1.3c0.2-0.6,0.4-1.1,0.5-1.7c0.1-0.4,0.2-0.7,0.3-1.1c0.1-0.3,0.2-0.6,0.3-0.9c0-0.1,0.1-0.2,0.2-0.2
	c0.3-0.1,0.5-0.2,0.8-0.2c0.7-0.2,1.3-0.2,2-0.1c0.6,0.1,1.1,0.4,1.4,1c0.5,0.9,0.5,1.9,0.3,2.9c-0.3,1.3-0.9,2.5-1.7,3.6
	c-0.6,0.9-1.4,1.6-2.4,2.1c-0.7,0.4-1.5,0.6-2.3,0.7c-0.3,0-0.6,0.1-1,0.1C-217.7,425.2-217.5,424.6-217.4,424z M-230.4,428.9
	c0,0.1,0.1,0.1,0.2,0.1c0,0,0.1-0.1,0.1-0.2v-0.3c0-0.3,0.1-0.5,0.1-0.8c0-0.1,0.1-0.2,0.2-0.2c0.4,0,0.8-0.1,1.2-0.1
	c0.4-0.1,0.7-0.1,1.1-0.2c0.1,0,0.2-0.1,0.2-0.2c0.3-0.1,0.6-0.3,0.9-0.4c0.5-0.3,1-0.7,1.5-1c0.2-0.2,0.4-0.4,0.6-0.5
	c0.3-0.2,0.5-0.5,0.7-0.8l0.9-1.5c0.2-0.4,0.4-0.8,0.6-1.3c0.3-0.8,0.5-1.6,0.6-2.4c0.1-0.7,0-1.5-0.2-2.2c-0.2-0.8-0.7-1.5-1.3-2.1
	c-0.3-0.2-0.6-0.4-0.9-0.6c-0.7-0.3-1.4-0.3-2.2-0.2c-0.1,0-0.3,0-0.4,0.1c0-0.2,0.1-0.4,0.1-0.6c0-0.2,0.1-0.3,0-0.5
	c-0.1-0.4-0.3-0.6-0.7-0.7c-0.2-0.1-0.4,0-0.5,0.2c-0.1,0.2-0.1,0.4-0.2,0.5c-0.2,0.5-0.3,1.1-0.5,1.6c0,0.2-0.1,0.4-0.3,0.5
	c-0.1,0.1-0.2,0.2-0.3,0.2c-0.7,0.6-0.9,1.4-1,2.3c0,0.4,0.2,0.7,0.4,1c0.1,0.1,0.2,0.2,0.2,0.4c0,0.2-0.1,0.4-0.1,0.7
	c-0.2,1.3-0.5,2.5-0.7,3.8c-0.1,0.7-0.2,1.4-0.3,2.1c0,0.1,0,0.1-0.1,0.1h-0.6c-0.2,0-0.5,0-0.7-0.1c-0.2,0-0.4-0.1-0.6-0.1
	c-0.1,0-0.1,0-0.2,0s-0.1,0-0.2-0.1c-0.3-0.1-0.6-0.2-0.6-0.6c-0.2,0-0.3-0.1-0.4-0.2c0,0-0.1,0-0.2,0c-0.2,0-0.3,0.1-0.5,0.2
	c0,0.2,0.1,0.4,0.1,0.6c0,0.1,0.1,0.2,0.1,0.3s0,0.2,0.2,0.1l0.1,0.1c0,0.2,0.2,0.3,0.3,0.4c0.1,0.1,0.2,0.1,0.2,0.2l0.1,0.1
	c0.1-0.1,0.1,0.1,0.2,0.1c0.2,0.1,0.3,0.4,0.5,0.4c0.5,0.2,0.9,0.3,1.4,0.5c0.2,0.1,0.4,0.1,0.6,0.1c0.1,0,0.2,0.1,0.2,0.2
	c0,0.2-0.1,0.4-0.1,0.7C-230.5,428.7-230.5,428.8-230.4,428.9z M-229.4,425c0.2-0.7,0.3-1.3,0.5-2c0.1-0.5,0.2-1.1,0.3-1.6
	c0.1-0.5,0.3-1,0.5-1.5c0.2-0.6,0.4-1.2,0.6-1.9c0.2-0.6,0.3-1.2,0.5-1.8c0-0.5,0.4-0.7,0.8-0.8c0.6-0.2,1.3-0.2,2-0.2
	c0.4,0,0.9,0.1,1.2,0.4c0.2,0.2,0.4,0.5,0.6,0.7c0.5,0.9,0.5,1.8,0.2,2.7c-0.2,0.8-0.4,1.5-0.8,2.2c-0.4,0.8-0.9,1.5-1.5,2.2
	c-0.6,0.6-1.2,1.1-2,1.5c-0.6,0.3-1.2,0.5-1.8,0.5c-0.4,0.1-0.8,0.1-1.2,0.1C-229.5,425.5-229.5,425.2-229.4,425z M-209.7,441.5
	c-0.8,0.2-1.5,0.4-2.3,0.3c-0.9-0.1-1.6-0.5-2.1-1.2c-0.4-0.5-0.7-1.1-0.9-1.7c-0.1-0.2-0.2-0.4-0.2-0.7c-0.1-0.4-0.2-0.8-0.3-1.3
	c-0.1-0.3-0.2-0.6-0.3-0.9c-0.1-0.3-0.1-0.6-0.2-1c-0.1-0.3-0.1-0.5-0.2-0.8c-0.1-0.2-0.1-0.3-0.3-0.3c-0.3,0-0.5,0-0.7,0.3
	c-0.1,0.1-0.2,0.3-0.3,0.4c-0.4,0.8-0.8,1.6-1.1,2.4c-0.1,0.2-0.2,0.5-0.3,0.8c-0.1,0.2-0.2,0.5-0.3,0.7c-0.1,0.1-0.1,0.3-0.2,0.4
	h-0.1c0-0.1-0.1-0.2-0.1-0.4v-2.6c0-0.5-0.1-1.1-0.2-1.6c0-0.2-0.1-0.3-0.2-0.5c-0.1-0.3-0.3-0.5-0.6-0.7c0,0-0.1,0-0.2,0
	c-0.3,0-0.6,0.1-0.9,0.4c-0.2,0.3-0.5,0.5-0.7,0.8c-0.5,0.8-0.9,1.6-1.3,2.5c-0.2,0.5-0.4,0.9-0.5,1.4c0,0,0,0.1-0.1,0.1
	c0-0.4-0.1-0.7-0.1-1c-0.1-0.5-0.1-0.9-0.2-1.4c0-0.3-0.1-0.5-0.1-0.8c-0.1-0.3-0.2-0.5-0.3-0.8c0-0.1,0-0.2-0.1-0.2
	c-0.1-0.1-0.1-0.2-0.1-0.3s0-0.1-0.1-0.2c-0.1-0.2-0.3-0.4-0.4-0.5c0-0.1-0.1-0.1-0.2-0.1c-0.5-0.2-0.9-0.1-1.3,0.2
	c-0.5,0.4-0.9,0.8-1.2,1.3c-0.1,0.2-0.3,0.4-0.4,0.6c0,0,0,0.1-0.1,0.1c0,0.1,0,0.2-0.1,0.3c-0.2,0.4-0.4,0.7-0.5,1.2
	c-0.1,0.3-0.3,0.6-0.1,1c0,0,0.1,0,0.1-0.1v0.2c0.1,0,0.2,0.1,0.2,0.1c0-0.1,0-0.2,0.1-0.3c0.3-0.6,0.7-1.2,1-1.8
	c0.1-0.2,0.3-0.3,0.4-0.5c0.1-0.1,0.3-0.1,0.5,0c0.1,0.1,0.2,0.2,0.2,0.3c0.3,0.5,0.5,1,0.6,1.5c0.2,0.8,0.3,1.6,0.4,2.4
	c0,0.5,0.1,1,0.1,1.5c0,0.4,0,0.7,0.1,1.1c0.1,0.5,0.1,0.9,0.2,1.3c0,0.1,0,0.1,0.1,0.2s0.1,0.1,0.1,0s0-0.2,0.1-0.3h0.3
	c0.1-0.1,0.1-0.2,0.2-0.2c0.1-0.1,0.2-0.1,0.2-0.2c0-0.2,0.2-0.3,0.3-0.4c0.1-0.2,0.2-0.4,0.3-0.6c0.1-0.2,0.3-0.5,0.3-0.7
	c0.1-0.7,0.4-1.4,0.5-2.2c0-0.2,0.1-0.4,0.1-0.6c0.1-0.3,0.2-0.6,0.3-0.9c0.2-0.6,0.4-1.1,0.6-1.7c0-0.1,0.1-0.1,0.1-0.2
	c0,0,0,0,0.1,0c0.1,0.2,0.2,0.4,0.3,0.6c0.2,0.7,0.3,1.5,0.3,2.3c0,0.8,0,1.6,0.1,2.4c0,0.1,0,0.3,0.1,0.4c0,0.1,0.2,0.2,0.2,0.3
	c0.1,0.1,0.1,0.2,0.2,0.3c0.1-0.2,0.1-0.4,0.2-0.6c0.2,0.1,0.5,0,0.6-0.2s0.3-0.3,0.4-0.5l0.9-0.9c0.2-0.2,0.3-0.4,0.4-0.6
	c0.1-0.1,0.2-0.3,0.2-0.4s0.1-0.1,0.1-0.2c0-0.3,0.2-0.5,0.4-0.7c0,0.1,0.1,0.1,0.1,0.2c0.1,0.5,0.3,1,0.4,1.6
	c0.2,0.6,0.3,1.2,0.5,1.7c0.2,0.7,0.6,1.2,1,1.8c0.2,0.3,0.5,0.6,0.9,0.8c0.1,0.1,0.2,0.1,0.4,0.2c0.2,0.1,0.3,0.1,0.5,0.1
	c0.2,0,0.3,0.1,0.5,0.1c0.1,0,0.1,0,0.2,0h0.1c0.2,0,0.4,0,0.6,0.1c0,0,0.1,0,0.1-0.1c-0.1,0-0.1,0-0.2-0.1c0.1-0.1,0.2-0.1,0.3-0.2
	c-0.1-0.1-0.1-0.1-0.1-0.2c0.1,0,0.2-0.1,0.3-0.1h0.4c0.2,0,0.3-0.1,0.5-0.1c0-0.1,0.2-0.2,0.3-0.2c0.1,0,0.3-0.2,0.4-0.3
	c0-0.2,0.1-0.2,0.2-0.2c0.1-0.1,0.3-0.1,0.3-0.2c0.1-0.1,0.2-0.3,0.2-0.5c0,0,0-0.1,0.1-0.1c0.1-0.2,0.1-0.3,0.2-0.5h-0.1
	C-209.6,441.5-209.7,441.5-209.7,441.5z M-199,414.1C-199,414.1-199,414-199,414.1C-199.1,414-199.1,414.1-199,414.1L-199,414.1z
	 M-197.9,424.4c-0.2,0.2-0.5,0.5-0.8,0.7l-1.5,0.9c-0.4,0.2-0.7,0.4-1.2,0.4c-0.2,0-0.4,0.1-0.6,0c-0.1,0-0.2,0-0.4,0.1
	c-0.1,0-0.2,0-0.2-0.1c0-0.1-0.1-0.2-0.2-0.2c-0.2,0-0.4-0.1-0.6-0.1c-0.6-0.1-1.1-0.3-1.5-0.8c-0.2-0.2-0.3-0.5-0.5-0.7
	c0-0.1-0.1-0.1,0.1-0.2c0.1,0,0.2-0.1,0.3-0.1c0.2-0.1,0.3-0.3,0.5-0.3c0.2-0.1,0.4-0.2,0.6-0.3c0.1-0.1,0.3-0.2,0.4-0.3
	c0.2-0.2,0.5-0.3,0.7-0.5c0.4-0.4,0.8-0.7,1.2-1.1c0.3-0.3,0.6-0.6,0.9-0.9c0.1-0.1,0.2-0.1,0.3-0.2c0,0,0.1-0.1,0.1-0.2
	c0.1-0.1,0.1-0.3,0.2-0.4c0,0.1,0,0.1,0,0.3c0.1-0.1,0.1-0.2,0.1-0.3s-0.1-0.1-0.1-0.1c0-0.1,0.1-0.1,0.1-0.2c0-0.1,0.1-0.1,0.2-0.1
	c0.2-0.2,0.3-0.5,0.5-0.8c0.1-0.1,0.1-0.2,0.1-0.3c0.1-0.2,0.2-0.4,0.3-0.6c0.1-0.2,0.1-0.5,0.2-0.7c0-0.1,0.1-0.1,0.1-0.2
	c0-0.2,0.1-0.3,0.1-0.5c0-0.1,0.1-0.3-0.1-0.4v-0.1c0-0.1,0.1-0.3,0.1-0.4c0.1-0.2,0-0.5,0-0.7c-0.1-0.3-0.2-0.5-0.3-0.7
	c0,0.1-0.1,0.2-0.1,0.3c0,0,0,0-0.1,0c0.1-0.2-0.3-0.3-0.2-0.5h0.1v-0.3c-0.1,0-0.1-0.1-0.2-0.1c-0.1-0.1-0.2-0.1-0.3-0.2h-1.6
	c-0.1,0-0.1,0-0.2,0c-0.1,0-0.2,0.1-0.3,0.1c-0.1,0-0.3,0-0.3,0.2c0,0,0,0.1-0.1,0.1c-0.1,0-0.1,0-0.2,0l-0.1-0.1
	c-0.1,0.2-0.4,0.3-0.5,0.5c-0.1,0.2-0.4,0.2-0.6,0.3c-0.1,0-0.2,0.1-0.3,0.1c-0.3,0-0.4,0.1-0.5,0.3c0,0.1-0.1,0.2-0.2,0.3
	c-0.4,0.3-0.7,0.7-1.1,1c-0.2,0.2-0.3,0.4-0.5,0.6c-0.4,0.6-0.8,1.2-1.1,1.9c-0.2,0.3-0.3,0.7-0.4,1.1c-0.1,0.3-0.1,0.7-0.2,1.1v2
	c0,0.2,0,0.5,0.1,0.7c0.1,0.4,0.1,0.8,0.3,1.2c0.2,0.4,0.3,0.8,0.5,1.2c0.2,0.5,0.5,0.8,0.8,1.2c0,0.1,0.1,0.1,0.1,0.2
	c0.2,0.2,0.4,0.4,0.7,0.5c0.1,0.1,0.2,0.1,0.3,0.2c0.1,0,0.1,0.1,0.1,0.1c0.1,0.1,0.3,0.1,0.4,0.2c0.1,0,0.3,0.1,0.2,0.2
	c0.3,0,0.7-0.1,1,0.1c0,0,0-0.1,0.1-0.1c0.1,0,0.2,0,0.2-0.1c0.1,0,0.2-0.1,0.3,0h0.6c0.1,0,0.2-0.1,0.3-0.1
	c0.2-0.1,0.3-0.1,0.5-0.2h0.1c0.1,0,0.1,0,0.2,0h0.2c0,0,0.1-0.1,0.1,0c0.3,0.1,0.5-0.1,0.6-0.2c0.2-0.2,0.5-0.4,0.8-0.6
	c0,0,0,0,0.1,0c0,0.1,0,0.2,0,0.2c0.2-0.2,0.4-0.4,0.6-0.5c0.1-0.1,0.3-0.2,0.4-0.3c0.1,0,0.1-0.1,0.1-0.1c0-0.1,0-0.1,0.1-0.2
	s0.2-0.2,0.3-0.4c0.2-0.3,0.4-0.6,0.7-0.9v-0.1c0-0.1,0.1-0.2,0.1-0.4c0.1-0.3,0.2-0.5,0.4-0.8l0.1-0.1c0-0.2,0.1-0.4,0.1-0.6
	c0,0.1,0.1,0.1,0.1,0.1c0.1-0.4,0.3-0.9,0.5-1.3c-0.2,0.1-0.2,0.2-0.3,0.2C-196.6,423-197.2,423.7-197.9,424.4z M-205.7,422
	c-0.2-0.3,0-0.7,0.1-1c0-0.3,0.1-0.6,0.2-0.8c0.1-0.4,0.2-0.8,0.4-1.1c0.3-0.5,0.5-0.9,0.8-1.4s0.6-0.9,1-1.3c0.5-0.5,1-0.8,1.6-1.1
	c0.1,0,0.2-0.1,0.3-0.2c0.1,0.2,0.2,0.2,0.3,0.1c0.3-0.2,0.6-0.2,0.7,0.2c0.1,0.2,0.1,0.5,0.2,0.7v0.1c0,0.1-0.1,0.2,0,0.3
	c0.1,0.5-0.1,0.8-0.3,1.2c-0.4,0.7-0.9,1.3-1.5,1.8c-0.7,0.7-1.5,1.3-2.3,1.8c-0.5,0.1-0.9,0.3-1.3,0.6
	C-205.6,421.9-205.6,422-205.7,422z M-249.4,421.5c0-0.1,0.1-0.2,0.1-0.3c0.1-0.2,0.2-0.4,0.4-0.6c0,0,0,0.1,0.1,0.1
	c0.1,0.4,0.2,0.8,0.4,1.2c0.1,0.5,0.2,1,0.4,1.5c0.3,1,0.7,1.9,1.4,2.6c0.3,0.4,0.7,0.7,1.2,0.8c0.2,0,0.4,0.2,0.7,0.2h1.2
	c0,0,0,0,0-0.1c0.1-0.1,0.2-0.1,0.3-0.2c-0.1-0.1-0.1-0.1-0.2-0.1c0.1-0.1,0.2-0.1,0.3-0.2c0,0,0,0,0.1,0h0.3c0.2,0,0.3,0,0.5-0.1
	h0.1c0.1-0.2,0.2-0.2,0.4-0.2c0.1-0.1,0.3-0.1,0.4-0.3c0-0.2,0.1-0.2,0.2-0.2c0.1,0,0.3-0.1,0.3-0.2c0.2-0.2,0.2-0.5,0.3-0.8
	c0-0.1,0-0.2,0.1-0.3c-0.2,0.1-0.4,0.1-0.5,0.1c-0.7,0.2-1.4,0.3-2.1,0.2c-0.9-0.2-1.6-0.6-2.1-1.3c-0.5-0.7-0.8-1.5-1-2.3
	c-0.2-0.6-0.4-1.2-0.5-1.9c-0.1-0.2-0.1-0.5-0.1-0.7c-0.1-0.4-0.2-0.8-0.3-1.2c-0.1-0.4-0.2-0.5-0.6-0.5c-0.2,0-0.4,0-0.5,0.2
	l-0.9,1.5c-0.4,0.7-0.7,1.5-1,2.3c-0.1,0.3-0.2,0.5-0.4,0.8l-0.1,0.1l-0.1-0.1c0-0.2-0.1-0.4-0.1-0.7v-1.6c0-0.5-0.1-0.9-0.1-1.4
	v-0.4c-0.1-0.3-0.1-0.7-0.3-1c-0.2-0.3-0.4-0.5-0.6-0.7c0,0-0.1-0.1-0.2,0c-0.2,0.1-0.5,0.1-0.7,0.3c-0.4,0.2-0.6,0.6-0.9,1
	c-0.6,0.8-1,1.8-1.4,2.7c-0.2,0.4-0.3,0.8-0.4,1.3c0,0,0,0-0.1,0v-0.1c-0.1-0.6-0.1-1.1-0.2-1.7v-0.4c0-0.2-0.1-0.4-0.1-0.6
	s0-0.4-0.1-0.6c-0.1-0.3-0.2-0.5-0.3-0.8c0,0,0,0-0.1-0.1c0-0.1-0.1-0.1-0.1-0.2c-0.1-0.1-0.1-0.3-0.2-0.4c-0.4,0-0.5-0.2-0.6-0.3
	c-0.1-0.1-0.1-0.1-0.2-0.2c-0.6-0.3-1.2,0.1-1.7,0.5c-0.2,0.2-0.4,0.5-0.6,0.7l-0.6,0.9c0,0,0,0,0,0.1c-0.1,0.2-0.1,0.3-0.2,0.5
	c-0.1,0.3-0.3,0.5-0.4,0.8c-0.1,0.3-0.1,0.5-0.2,0.8v0.1c0,0.1,0,0.2,0,0.2s0,0,0,0.1c0,0,0.1,0,0.2-0.1c0,0.1,0,0.1,0,0.2
	c0.1,0,0.2,0.1,0.2,0.1c0-0.1,0.1-0.2,0.1-0.3c0.3-0.6,0.6-1.2,1-1.7c0.1-0.2,0.2-0.3,0.4-0.5c0.2-0.2,0.5-0.2,0.6,0
	c0.2,0.2,0.3,0.5,0.4,0.8c0.3,0.7,0.5,1.5,0.5,2.3c0.1,0.6,0.2,1.3,0.2,1.9c0.1,0.6,0.1,1.2,0.2,1.8v0.5c0,0.3,0.1,0.6,0.1,0.9
	c0,0.1,0.1,0.2,0.1,0.3h0.1c0-0.1,0.1-0.3,0.1-0.4h0.3c0.2-0.1,0.2-0.2,0.3-0.2c0-0.1,0.2-0.2,0.2-0.2c0-0.2,0.2-0.4,0.3-0.4
	c0.1-0.2,0.2-0.4,0.3-0.5c0.2-0.3,0.4-0.7,0.4-1.1c0.1-0.4,0.2-0.8,0.3-1.3c0-0.1,0.1-0.3,0.1-0.4c0.1-0.4,0.1-0.8,0.3-1.2
	c0.2-0.6,0.4-1.1,0.6-1.7c0.1-0.2,0.2-0.5,0.3-0.7c0.1,0.1,0.1,0.1,0.2,0.2c0.1,0.1,0.2,0.3,0.2,0.5c0.1,0.7,0.3,1.3,0.3,2v2.8
	c0,0,0,0.1,0.1,0.1c0.1,0.1,0.2,0.2,0.2,0.3c0.1,0.1,0.1,0.2,0.2,0.3c0,0,0,0,0.1,0c0-0.1,0.2-0.2,0.1-0.4c0,0,0.1-0.2,0.2-0.2
	c0.2,0,0.4,0,0.5-0.2l0.1-0.1c0.1-0.1,0.1-0.1,0.2-0.2l0.1-0.1c0.3-0.3,0.6-0.5,0.8-0.8c0.2-0.2,0.4-0.5,0.5-0.7
	C-249.5,421.7-249.4,421.6-249.4,421.5z M-199.1,413.8c0,0.1,0,0.1,0,0.2C-199,413.9-199,413.9-199.1,413.8z M-188.1,423.9
	c-0.2,0-0.4,0.1-0.6,0.3c-0.7,0.7-1.3,1.4-2.3,1.6c-0.4,0.1-1,0-1.2-0.3c-0.3-0.3-0.4-0.7-0.5-1.1c0-0.1,0-0.1,0-0.2
	c0.1-0.8,0.1-1.6,0.2-2.3c0.1-0.8,0.1-1.6,0.2-2.4c0.1-0.9,0.1-1.8,0.2-2.7c0-0.6,0.3-1.1,0.3-1.7c0.1-0.6,0.2-1.2,0.3-1.8v-2.1
	c0-0.5-0.2-0.9-0.3-1.4h-0.4c0,0-0.1,0-0.1,0.1c-0.1,0.3-0.2,0.7-0.2,1c0,0.8-0.1,1.7-0.1,2.5v1.2c0,0.1,0,0.3-0.1,0.4
	c-0.3,0.8-0.6,1.6-1,2.4c-0.4,0.7-0.7,1.4-1.1,2.1c0,0.1-0.1,0.1-0.1,0.2v1.5c0.1,0.1,0.4,0,0.5-0.1c0.2-0.4,0.4-0.8,0.7-1.3
	c0.2-0.4,0.4-0.8,0.6-1.1c0,0.1,0,0.2,0,0.2c0,0.2-0.1,0.3-0.1,0.5c-0.1,1-0.1,2-0.2,3.1v2.9c0,0.4,0.1,0.8,0.3,1.2
	c0.1,0.3,0.3,0.5,0.6,0.7c0.3,0.2,0.6,0.2,0.9,0.2c0.6,0,1.2-0.1,1.8-0.4c0.5-0.4,1-0.8,1.4-1.3c0.2-0.2,0.3-0.5,0.3-0.8
	C-188,424.8-188,424.4-188.1,423.9C-188,423.9-188,423.9-188.1,423.9z M-238.2,439.4c-0.7,0.9-1.4,1.7-2.2,2.4
	c-0.1,0.1-0.3,0.3-0.5,0.4c-0.4,0.2-0.8,0.5-1.1,0.7c-0.3,0.2-0.6,0.3-0.8,0.5c-0.3,0.2-0.6,0.1-0.9,0.1h-0.8l-0.1-0.1
	c0-0.1-0.1-0.2-0.2-0.2c-0.3,0-0.5-0.1-0.8-0.1c-0.9-0.2-1.4-0.7-1.8-1.5v-0.1c0.1-0.1,0.3-0.1,0.4-0.2s0.2-0.2,0.4-0.2
	c0.4-0.1,0.7-0.3,1-0.5c0.2-0.1,0.3-0.2,0.5-0.4c0.4-0.3,0.8-0.6,1.1-0.9c0.1,0,0.1-0.1,0.2-0.1c0.1,0,0.2-0.1,0.3-0.2
	c0-0.1,0.1-0.2,0.2-0.2c0.3-0.2,0.4-0.5,0.7-0.6c0-0.2,0.2-0.2,0.3-0.3c0.1-0.1,0.1-0.1,0.2-0.2c0.1-0.2,0.1-0.3,0.2-0.5
	c0,0.1,0,0.1,0.1,0.2c0.1-0.1,0.1-0.2,0.1-0.3c-0.1,0-0.1,0-0.1,0c0-0.1,0-0.1,0-0.2c0.2-0.1,0.3-0.3,0.4-0.5c0.2-0.3,0.4-0.6,0.5-1
	c0.1-0.2,0.1-0.4,0.2-0.5c0.1-0.3,0.3-0.5,0.3-0.9c0-0.2,0.2-0.4-0.1-0.5v-0.1c0-0.1,0.1-0.2,0.1-0.4c0.1-0.2,0-0.5,0-0.8
	c-0.1-0.2-0.2-0.5-0.3-0.8c0,0.2-0.1,0.3-0.1,0.4c-0.1-0.1-0.1-0.2-0.2-0.3c-0.1-0.1,0-0.2,0.2-0.1c-0.1-0.1-0.1-0.2-0.1-0.3
	c-0.1,0.1-0.1,0.2-0.1,0.2v-0.4c-0.1-0.1-0.1-0.1-0.2-0.1c-0.1,0-0.1-0.1-0.2-0.1c-0.3,0-0.5-0.1-0.8-0.1s-0.7,0-1,0.1h-0.1
	c-0.1,0-0.1,0.1-0.2,0.1c-0.3,0-0.4,0.3-0.7,0.3c-0.1-0.1-0.1-0.2-0.3,0c-0.1,0.1-0.3,0.2-0.4,0.3c-0.1,0.1-0.3,0.2-0.5,0.3
	c-0.1,0.1-0.3,0.2-0.4,0.2c-0.2,0-0.3,0.1-0.4,0.2c-0.1,0.2-0.2,0.3-0.4,0.5c-0.3,0.3-0.6,0.6-0.9,0.9c-0.1,0.1-0.1,0.2-0.2,0.4
	c-0.5,0.6-0.9,1.2-1.2,1.9c-0.2,0.3-0.2,0.7-0.4,1c-0.2,0.4-0.3,0.8-0.3,1.2c-0.4,0.4-0.4,1-0.4,1.6c0,0.8,0.1,1.5,0.3,2.3
	c0.1,0.4,0.2,0.9,0.5,1.3c0.2,0.3,0.3,0.6,0.5,0.9c0,0.1,0.1,0.1,0.2,0.2c0.2,0.2,0.3,0.4,0.5,0.6c0.2,0.1,0.3,0.4,0.6,0.4
	c0.1,0.2,0.4,0.2,0.6,0.3c0.1,0,0.3,0,0.2,0.3c0.2-0.1,0.9-0.1,1,0.1c0.1-0.2,1.1-0.2,1.3-0.1c0.1,0,0.2-0.1,0.3-0.1
	c0.2-0.1,0.4-0.1,0.5-0.2c0,0,0.1,0,0.1-0.1c0.1,0,0.1,0,0.2,0h0.2c0,0,0.1-0.1,0.1,0c0.3,0.1,0.5-0.1,0.7-0.2
	c0.3-0.2,0.5-0.4,0.7-0.6h0.1v0.3c0.1-0.1,0.2-0.3,0.3-0.4c0.1-0.1,0.2-0.1,0.3-0.2c0.1-0.1,0.3-0.2,0.4-0.2c0.2,0,0.2-0.1,0.2-0.2
	c0,0,0-0.1,0.1-0.1c0.1-0.2,0.2-0.3,0.4-0.5c0-0.1,0-0.1,0.1-0.2c0.2-0.2,0.3-0.3,0.5-0.5c0,0,0-0.1,0.1-0.1c0-0.1,0.1-0.3,0.1-0.4
	c0.1-0.2,0.2-0.5,0.3-0.7c0.1,0,0.1-0.1,0.1-0.1c0-0.2,0.1-0.4,0.1-0.6c0,0.1,0.1,0.1,0.1,0.1c0.2-0.4,0.3-0.9,0.5-1.3
	C-238.1,439.3-238.1,439.4-238.2,439.4z M-247.5,438.8c-0.2,0.3-0.3,0.3-0.5,0.4c0-0.2,0-0.4,0.1-0.6c0.1-0.5,0.2-1,0.3-1.5
	c0,0,0,0,0-0.1c0.2-0.4,0.3-0.7,0.5-1.1c0.1-0.3,0.3-0.5,0.4-0.8c0.3-0.5,0.6-1,1-1.5c0.5-0.6,1.1-1,1.9-1.4c0.1,0,0.1,0,0.2-0.1
	c0.1,0,0.1-0.1,0.1-0.2c0.1,0.2,0.2,0.2,0.3,0.1c0.3-0.3,0.5-0.2,0.7,0.2c0.1,0.2,0.2,0.5,0.2,0.7c-0.1,0.4,0.1,0.8-0.1,1.2
	c-0.2,0.3-0.4,0.7-0.6,1c-0.6,0.8-1.3,1.5-2.1,2.1C-245.9,437.8-246.7,438.3-247.5,438.8z M-206.8,410.1c-0.1,0-0.3-0.1-0.5-0.1
	l0.1-0.1c0.3,0,0.5,0,0.8,0.1c0.2,0,0.5,0,0.8-0.1h0.1c0.2,0.1,0.3,0,0.4-0.1c0,0,0,0,0.1,0c0,0,0,0.1,0.1,0.1
	c0.2-0.1,0.3-0.2,0.4-0.2c0.2,0,0.2,0,0.3-0.1h0.3c0.2-0.1,0.4-0.2,0.5-0.3c0.1-0.1,0.3-0.2,0.4-0.3c0.2-0.1,0.3-0.3,0.4-0.4
	c0.1-0.2,0.2-0.4,0.3-0.5l-0.1,0.1v-0.3c-0.1,0.1-0.3,0.1-0.4,0.2c-0.1,0.1-0.3,0.2-0.4,0.3c-0.8,0.3-1.6,0.4-2.5,0.2
	c-0.8-0.1-1.6-0.4-2.4-0.6c-0.5-0.2-1-0.3-1.6-0.4c-0.1,0-0.2-0.1-0.2-0.1c0.1-0.1,0.1-0.1,0.2-0.1c0.1-0.1,0.2-0.2,0.4-0.3
	c0.2-0.2,0.4-0.3,0.6-0.5l0.4-0.4c0.2-0.2,0.5-0.4,0.7-0.6c0.4-0.4,0.7-0.7,1.1-1.1l0.1,0.1c0.1-0.1,0.1-0.1,0.2-0.2
	c0-0.3,0.1-0.4,0.2-0.5c0.2-0.2,0.3-0.4,0.5-0.6l0.1-0.1c0.2,0,0.1-0.1,0.1-0.2c0.2,0,0.3-0.1,0.4-0.2c0-0.1,0-0.2,0.1-0.3
	c0,0,0.1-0.1,0-0.1c-0.1-0.2,0.1-0.3,0.2-0.4c0-0.1,0.1-0.1,0.1-0.2s0-0.2,0.1-0.3c0.1-0.1,0.3-0.2,0.3-0.4c0,0,0.1,0,0.1-0.1
	c0.1-0.1,0.3-0.3,0.2-0.5c-0.2,0-0.2-0.2-0.4-0.1c-0.1,0-0.2,0-0.2,0.1c-0.8,0.3-1.6,0.5-2.4,0.8c-0.3,0.1-0.6,0.1-0.9,0
	c-0.6-0.1-1-0.5-1.5-0.8c-0.4-0.3-0.9-0.6-1.4-0.5c-0.4,0.1-0.8,0.1-1,0.5c-0.1,0.1-0.1,0.2,0,0.3c-0.2,0-0.3,0.1-0.4,0.2
	c-0.1,0.1-0.2,0.3-0.2,0.5c-0.1,0.1-0.1,0.2,0.1,0.3c0,0.1,0,0.2,0,0.2c0.1,0.1,0.3,0,0.4-0.2c0.2,0,0.4,0.1,0.6,0.1c0,0,0,0,0,0.1
	l-0.1,0.1c0.1,0,0.2-0.1,0.3,0c0.1,0.1,0.2,0.2,0.4,0.3c0.5,0.4,0.9,0.8,1.5,1c0.1,0,0.3,0.1,0.3,0c0.1-0.1,0.2-0.1,0.3-0.1
	c0.3,0,0.6,0,0.9-0.1c0,0,0,0,0.1,0c0.2,0,0.4-0.1,0.5-0.2c0-0.1,0.2-0.1,0.4-0.1c0,0,0,0,0,0.1c-0.2,0.2-0.4,0.4-0.6,0.6l-0.7,0.7
	c-0.3,0.2-0.6,0.5-0.8,0.7c-0.6,0.5-1.2,1-1.8,1.5c-0.1,0.1-0.3,0.2-0.5,0.4c-0.3,0.2-0.6,0.5-0.9,0.6s-0.5,0.4-0.6,0.7
	c-0.1,0.2-0.1,0.4-0.2,0.6c-0.3,0.3-0.1,0.6,0,0.8c0.1,0.1,0.3,0.2,0.3,0.1c0.1-0.2,0.2-0.2,0.4-0.2h1.1c0.1,0,0.2,0.1,0.3,0.1
	c0.2,0,0.3,0,0.4,0.1c0.1,0,0.2,0,0.2,0c0.2,0,0.4,0.1,0.5,0.1c0.1,0,0.2,0,0.2-0.1C-208.4,409.9-207.6,410.2-206.8,410.1z
	 M-236.4,426.1c0.1,0,0.2,0,0.4-0.1h0.9c0,0,0,0,0-0.1c0,0-0.1,0-0.1-0.1c-0.7-0.2-1.4-0.2-2.1-0.2c-0.2,0-0.2,0-0.2-0.2
	c0-0.1,0.1-0.1,0.1-0.2c0-0.2,0.2-0.3,0.1-0.5c0-0.2,0-0.4,0.1-0.5c0-0.1,0-0.1,0-0.2s0.1-0.3,0.1-0.4c0.1-0.2,0.1-0.4,0.2-0.7
	c0-0.1,0.1-0.1,0.1-0.2c0,0,0-0.1,0.1-0.1c0-0.1,0-0.3,0.1-0.4c0.1-0.4,0.3-0.9,0.4-1.3c0.1-0.4,0.2-0.8,0.3-1.1
	c0.2-0.5,0.3-1,0.5-1.6l0.1-0.1c0-0.2,0.1-0.4,0.2-0.6c0-0.1,0-0.1,0.1-0.2c0.1-0.2,0.1-0.3,0.2-0.5c0-0.1,0.1-0.2,0.2-0.2h-0.1
	c0-0.1,0-0.2,0.1-0.2c0.1-0.1,0.1-0.1,0-0.2c0.1-0.2,0.1-0.3,0.2-0.4c0.1-0.2,0.1-0.5,0.4-0.5c0.2,0,0.4-0.1,0.6-0.1
	c0.1,0,0.2-0.1,0.3-0.1c0.2,0,0.4,0,0.5-0.3l0.1-0.1c0.2,0,0.3-0.2,0.5-0.2c0.1-0.1,0.1-0.1,0.2-0.2c0,0,0,0-0.1,0
	c0.1-0.1,0.1-0.2,0.2-0.2c-0.2,0.1-0.3,0.2-0.4,0.2h-0.1c0-0.1-0.1-0.1-0.1-0.1c0-0.4,0.4-0.5,0.6-0.7c-0.2,0.2-0.3,0.4-0.3,0.6
	c0.1-0.1,0.1-0.3,0.3-0.4c0,0.1-0.1,0.2-0.1,0.3c0.2-0.1,0.2-0.3,0.2-0.4c0.1-0.3,0-0.4-0.1-0.5c0,0,0,0.1-0.1,0.1
	c0,0.1-0.1,0.1-0.2,0.2c0-0.1,0-0.1,0-0.2c0,0-0.1,0-0.1,0.1c-0.6,0.5-1.2,0.9-2,1.2c-0.3,0.1-0.5,0.2-0.8-0.1
	c-0.2-0.2-0.6-0.1-0.7,0.2c0,0.1-0.1,0.2-0.1,0.2c-0.5,0.1-1,0.1-1.5,0.2c-0.2,0-0.4,0-0.5,0.2c-0.1,0.1-0.1,0.2-0.1,0.3
	c0.2,0.2,0.4,0.3,0.5,0.4c0.1,0,0.1,0.1,0.2,0.1c0.1,0,0.1,0.1,0.2,0.1c0.2,0,0.4,0,0.5-0.1c0.1,0,0.2-0.1,0.2-0.1
	c0.1,0,0.1,0,0.2,0c0,0.1,0,0.1,0,0.2s-0.1,0.2-0.1,0.3c-0.1,0.3-0.2,0.7-0.3,1c-0.1,0.3-0.1,0.5-0.2,0.8c0,0.2-0.1,0.3-0.2,0.5
	c-0.1,0.3-0.2,0.6-0.2,0.9c-0.1,0.5-0.3,1-0.4,1.5c-0.1,0.4-0.2,0.9-0.3,1.3c-0.2,0.6-0.3,1.2-0.5,1.7c-0.1,0.3-0.2,0.6-0.3,0.8
	c-0.1,0.2-0.1,0.4-0.2,0.6c-0.1,0.2-0.1,0.4-0.2,0.6c0,0,0,0.1-0.1,0.1c-0.3,0.1-0.6,0.2-1,0.3c-0.3,0.1-0.5,0.5-0.3,0.7l0.1-0.1
	c0.1,0.1,0.3,0.2,0.4,0.2c0.2,0,0.4-0.1,0.6-0.1c0.3,0.2,0.5-0.1,0.6-0.2c0,0.1,0.1,0.1,0.1,0.2c0.3-0.4,0.3-0.4,0.4-0.3l0.1-0.1
	c0.2-0.1,0.5-0.1,0.7-0.2c0.1-0.1,0.3-0.1,0.4-0.2C-236.6,426.2-236.5,426.2-236.4,426.1z M-229.5,432c0.2-0.1,0.3-0.1,0.4-0.2
	c0,0,0,0,0.1,0c0.1,0.1,0.2,0,0.2-0.1c0.1-0.1,0.1-0.2,0.2-0.2c0,0,0.1-0.1,0.1-0.2c-0.2,0.1-0.4,0.3-0.6,0.4
	c-0.1-0.2-0.1-0.4,0.1-0.5c0.1-0.1,0.3-0.2,0.5-0.4c0,0.1,0,0.1,0,0.2c0,0,0.1,0,0.2-0.1c-0.1,0.1-0.1,0.2-0.1,0.3
	c0.1-0.1,0.2-0.1,0.2-0.2v-0.7c0-0.1-0.1-0.1-0.2,0c-0.1,0.1-0.1,0.2-0.1,0.3c-0.2-0.1,0-0.2,0-0.3c0,0-0.1,0-0.1,0.1
	c-0.6,0.5-1.2,1-2,1.2c-0.2,0.1-0.4,0.2-0.7,0c-0.1-0.1-0.3-0.1-0.4-0.2c-0.2,0-0.3,0.1-0.3,0.2c0,0.3-0.2,0.3-0.4,0.3
	c-0.5,0.1-1.1,0.1-1.6,0.2c-0.3,0-0.3,0.1-0.3,0.4c0.2,0.1,0.4,0.1,0.4,0.3c0.1,0.1,0.2,0.1,0.3,0.2c0.1,0.1,0.1,0.1,0.2,0.1
	c0.2-0.1,0.5-0.1,0.7-0.2c0.2,0,0.2,0,0.2,0.2c-0.1,0.4-0.2,0.8-0.3,1.2c-0.1,0.3-0.2,0.6-0.3,0.9c-0.1,0.2-0.1,0.5-0.2,0.7
	c-0.1,0.4-0.3,0.8-0.4,1.2c-0.1,0.2-0.1,0.4-0.2,0.6c-0.1,0.3-0.2,0.6-0.3,1c-0.2,0.6-0.3,1.1-0.5,1.7c0,0.2-0.1,0.3-0.2,0.5
	c-0.1,0.2-0.1,0.5-0.2,0.7c-0.1,0.4-0.3,0.8-0.4,1.3c-0.1,0.2-0.1,0.4-0.3,0.4c-0.2,0.1-0.5,0.2-0.8,0.2c-0.1,0-0.2,0.1-0.3,0.2
	c0,0.2-0.1,0.3,0,0.5c0.2-0.1,0.3,0.1,0.4,0.2c0.2,0,0.4-0.1,0.6-0.1c0.3,0.2,0.4-0.1,0.6-0.2c0.1,0.1,0.1,0.1,0.1,0.2
	c0.1-0.1,0.2-0.3,0.4-0.3c0.1-0.1,0.2-0.1,0.3-0.1l0.1-0.1c0.2,0,0.4,0,0.6-0.2c0,0,0,0,0.1,0c0.1,0,0.1-0.1,0.2-0.1
	c0.1,0,0.2-0.1,0.3-0.1c0.4,0,0.8-0.1,1.2-0.1h0.1c-0.1,0-0.1-0.1-0.1-0.1c-0.3-0.1-0.6-0.1-1-0.1h-1.2c-0.1,0-0.2-0.1-0.2-0.2
	c0.1-0.2,0.1-0.4,0.2-0.6c0.1-0.3,0.1-0.7,0.2-1c0.1-0.3,0.1-0.6,0.2-0.9c0-0.1,0.1-0.2,0.1-0.2c0-0.1,0.1-0.1,0.1-0.2
	s0-0.2,0.1-0.3c0-0.1,0.1-0.3,0.1-0.4c0.1-0.3,0.1-0.5,0.2-0.8c0.1-0.1,0.1-0.2,0.2-0.3c0.1-0.5,0.3-0.9,0.4-1.4
	c0.1-0.3,0.2-0.7,0.4-1l0.1-0.1c0,0-0.1-0.1,0-0.1c0.1-0.2,0.1-0.3,0.2-0.5V435c0.1-0.2,0.1-0.4,0.2-0.5c0-0.1,0.1-0.1,0.1-0.2
	c-0.1-0.2,0.1-0.2,0.1-0.4c0,0-0.1,0-0.1-0.1c0,0,0,0,0.1,0c0.1-0.1,0.1-0.3,0.2-0.4c0.1-0.2,0.1-0.4,0.3-0.5
	c0.3-0.1,0.6-0.2,0.9-0.3C-229.8,432.3-229.6,432.3-229.5,432z"/>
</svg>
