<?xml version="1.0" encoding="utf-8"?>
<!-- Generator: Adobe Illustrator 19.0.0, SVG Export Plug-In . SVG Version: 6.00 Build 0)  -->
<svg version="1.1" id="Layer_1" xmlns="http://www.w3.org/2000/svg" xmlns:xlink="http://www.w3.org/1999/xlink" x="0px" y="0px"
	 viewBox="-267 395.9 140 50" style="enable-background:new -267 395.9 140 50;" xml:space="preserve">
<path d="M-250.2,432l-2.8-10.8h-3.6l-2.8,10.8l-2.6-10.8h-4.9l4.8,18.3h4.4l2.9-10.8l2.8,10.8h4.4l4.8-18.3h-4.8L-250.2,432z
	 M-241.9,439.6h13.1v-4.2h-8.4v-3.2h7.7v-4h-7.7v-2.9h8.4v-4.1h-13.1V439.6z M-217.9,419.8c4.2,0,7.2-2.6,7.7-5.6l-3.3-1.8
	c-0.8,2.3-2.5,3.2-4.2,3.2c-2.4,0-4.9-1.7-4.9-5.4c0-3.7,2.3-5.2,4.6-5.2c2,0,3.8,1.2,4,3.8h3.6v-7.4h-3.6l0,2.4
	c-0.7-2-3.1-2.9-5.1-2.9c-4,0-8.8,2.8-8.8,9.4C-227.9,415.9-224.3,419.8-217.9,419.8z M-199.4,416.3h-2.2v-2.7l2-1.7l4,4.5h-2.3v3
	h9.7v-3h-1.5l-6.6-7.2l5.5-4.6h1.8v-3.1h-9.1v3.1h2.7l-6.2,5.5v-5.5h2.1v-3.1h-9.6v3.1h2.7v11.8h-2.7v3h9.7V416.3z M-257.1,416.3
	h-2.3v-4h1.8c1.6,0,2.1,1.6,3.1,4.5c0.6,1.9,1.6,2.9,3.6,2.9c3.3,0,4.3-2.2,3.9-2.1c-1.7,0.4-2.5-0.2-2.7-1
	c-0.3-0.8-0.5-1.6-0.9-2.9c-0.6-1.9-1.1-3-3.5-3v-0.2c3.3-0.1,4.9-1.9,4.9-4.2c0-2.5-2.3-4.7-6.6-4.8h-11.3v3h2.9v11.8h-2.9v3h10
	V416.3z M-259.4,404.5h2.7c1.8,0,2.6,1.4,2.6,2.4c0,1.1-0.5,2.4-3.3,2.4h-2V404.5z M-238.9,419.8c5.6,0,9.7-4.2,9.7-9.5
	c0-5.3-4-9.4-9.7-9.4c-2.2,0-4.2,0.7-5.8,1.8c-2.3,1.7-3.8,4.4-3.8,7.6C-248.4,415.6-244.5,419.8-238.9,419.8z M-238.9,404.8
	c3,0,4,1.4,4,5.5c0,4-1.1,5.7-4,5.7c-2.9,0-4-1.6-4-5.7C-242.9,406.3-241.8,404.8-238.9,404.8z M-157.5,439.6h13.1v-4.2h-8.4v-3.2
	h7.7v-4h-7.7v-2.9h8.4v-4.1h-13.1V439.6z M-175,425.4h5.6v14.2h4.8v-14.2h5.7v-4.1H-175V425.4z M-131.3,433c2.2-0.8,3.6-2.8,3.6-5.5
	c0-4-2.7-6.2-6.7-6.2h-8.2v18.3h4.8v-6.1h1.7l3.8,6.1h5.3L-131.3,433z M-134.8,429.7h-3v-4.4h3c1.7,0,2.5,0.9,2.5,2.2
	C-132.4,428.8-133.1,429.7-134.8,429.7z M-202.3,425.2c1.7,0,2.7,0.9,3.1,2.2h4.8c-0.7-3.7-3.3-6.5-7.9-6.5c-5.1,0-8.8,3.9-8.8,9.5
	c0,5.6,3.7,9.5,8.8,9.5c4.6,0,7.3-2.7,7.9-6.5h-4.8c-0.5,1.4-1.5,2.3-3.1,2.3c-2.5,0-4-2.3-4-5.3
	C-206.3,427.4-204.9,425.2-202.3,425.2z M-212.1,427.5c0-4-2.7-6.2-6.7-6.2h-8.2v18.3h4.8v-6.1h1.7l3.8,6.1h5.3l-4.3-6.6
	C-213.5,432.2-212.1,430.3-212.1,427.5z M-219.2,429.7h-3v-4.4h3c1.7,0,2.5,0.9,2.5,2.2C-216.8,428.8-217.5,429.7-219.2,429.7z
	 M-181.1,428.2h-7.1v-7h-4.8v18.3h4.8v-7.3h7.1v7.3h4.8v-18.3h-4.8V428.2z"/>
</svg>
