<svg xmlns="http://www.w3.org/2000/svg" width="61" height="50" viewBox="0 0 61 50"><path d="M13.3 26.2c-1.5 0-1.7 0-1.7 0.6v22.7c0 0.5 0.1 0.5 1.7 0.5 1.8 0 1.9 0 1.9-0.6V26.8C15.2 26.3 15 26.2 13.3 26.2zM21 33.4c-0.5 0-1.8 0-1.8 0.3 -0.9 6.1-1.5 9.8-2.5 16 0 0.2 1.3 0.2 1.7 0.2 0.8 0 1.6 0 1.6-0.2 0.1-1.4 0.2-1.9 0.3-3.3 0-0.2 0.2-0.2 0.7-0.2 0.4 0 0.6 0 0.6 0.2 0.2 1.3 0.3 1.9 0.5 3.2 0 0.3 0.8 0.3 1.5 0.3 0.6 0 1.9 0 1.9-0.2 -1.1-6.2-1.8-9.9-2.8-15.9C22.7 33.4 21.6 33.4 21 33.4zM21 44.1c-0.4 0-0.4 0-0.4-0.2 0.1-1.4 0.2-2.2 0.2-3.8 0-0.1 0.1-1.1 0.2-1.1s0.2 0.9 0.2 1c0.1 1.9 0.2 2.6 0.3 4C21.5 44.1 21.3 44.1 21 44.1zM4.9 26.2C1.9 26.2 0 28.4 0 31v14.3C0 47.8 1.9 50 4.9 50c3.2 0 4.8-1.9 4.8-4.8v-1.8c0-0.6-0.3-0.6-1.8-0.6 -1.5 0-1.8 0-1.8 0.5V45c0 0.6-0.3 1.4-1.3 1.4 -1.1 0-1.3-1-1.3-1.9V31.6c0-0.9 0.2-1.9 1.3-1.9 0.9 0 1.3 1 1.3 1.4v1.8c0 0.4 0.6 0.4 1.7 0.4 1.6 0 1.9-0.1 1.9-0.4V31C9.8 28.5 8.1 26.2 4.9 26.2zM47 33.6c-1.6 0-1.7 0-1.7 0.6v15.2c0 0.6 0 0.6 1.7 0.6 1.8 0 1.9 0 1.9-0.6V34.2C48.9 33.6 48.8 33.6 47 33.6zM31.6 40.4c-1.8-1.5-1.9-1.7-1.9-3.2 0-0.5 0.3-0.8 0.6-0.8 0.3 0 0.6 0.3 0.6 0.8v1.1c0 0.1 0.6 0.1 2 0.1 1.1 0 1.4 0 1.4-0.1v-1.2c0-2.2-1.8-3.6-4-3.6 -2.2 0-4 1.4-4 3.6 0 2.3 0.4 3 1.8 4.5 1.3 1.3 2.9 2 2.9 4.2 0 0.6-0.1 1.2-0.6 1.2 -0.6 0-0.6-0.4-0.6-1.6v-0.7c0-0.1-0.6-0.1-2-0.1 -1.3 0-1.6 0-1.6 0.2v1.3c0 2.4 1.8 3.9 4.2 3.9 2.5 0 4.1-1.4 4.1-3.9C34.5 42.8 32.9 41.6 31.6 40.4zM47 31.2c1.8 0 1.9 0 1.9-0.6v-3.8c0-0.6-0.1-0.6-1.9-0.6 -1.6 0-1.7 0-1.7 0.6v3.9C45.2 31.2 45.3 31.2 47 31.2zM59.2 33.3c1.6 0 1.8-0.1 1.8-0.4V31c0-2.5-1.6-4.8-4.8-4.8 -3.1 0-4.9 2.2-4.9 4.8v14.3c0 2.6 1.9 4.8 4.9 4.8 3.2 0 4.8-1.9 4.8-4.8v-1.8c0-0.6-0.3-0.6-1.7-0.6 -1.5 0-1.8 0-1.8 0.5V45c0 0.6-0.3 1.4-1.3 1.4 -1 0-1.3-1-1.3-1.9V31.6c0-0.9 0.2-1.9 1.3-1.9 0.9 0 1.3 1 1.3 1.4v1.8C57.5 33.3 58 33.3 59.2 33.3zM41 40.4c-1.8-1.5-1.9-1.7-1.9-3.2 0-0.5 0.3-0.8 0.6-0.8s0.6 0.3 0.6 0.8v1.1c0 0.1 0.6 0.1 2 0.1 1.1 0 1.5 0 1.5-0.1v-1.2c0-2.2-1.8-3.6-4-3.6 -2.2 0-4 1.4-4 3.6 0 2.3 0.4 3 1.8 4.5 1.3 1.3 2.9 2 2.9 4.2 0 0.6-0.1 1.2-0.6 1.2 -0.6 0-0.6-0.4-0.6-1.6v-0.7c0-0.1-0.6-0.1-2-0.1 -1.3 0-1.6 0-1.6 0.2v1.3c0 2.4 1.8 3.9 4.1 3.9 2.5 0 4.1-1.4 4.1-3.9C43.9 42.8 42.4 41.6 41 40.4zM30.5 31.9c9 0 16.4-7.1 16.4-15.9C46.9 7.2 39.5 0 30.5 0c-9 0-16.4 7.2-16.4 15.9C14.1 24.8 21.5 31.9 30.5 31.9zM30.5 2.8c6.8 0 12.4 4.9 13.3 11.2 -0.3-0.2-0.6-0.2-1-0.2 -1.2 0-2.3 1-2.5 2.2 -0.2 1.2 0.7 2.2 1.9 2.2 0.2 0 0.4-0.1 0.6-0.1 -0.4 2.7-1.7 6.3-3.8 6.3 -0.8 0-0.9-0.7-0.9-1.3l1.3-8.8H36l-1.2 8.5c-0.6 1-1.2 1.6-2.1 1.6 -0.7 0-0.9-0.8-0.8-1.3l0.9-6.1c0.2-1.6-0.9-3-2.6-3 -1.6 0-3.2 1.3-3.4 3L26.6 18l-0.2 1.1c0 0.4-0.5 0.7-0.8 0.7 -0.4 0-0.7-0.3-0.7-0.7l1.2-8.2h3.5l0.3-1.7h-3.5l0.4-3h-3.5l-0.4 3h-2.7L20 10.9h2.7l-1.2 8.2c-0.2 1.6 0.9 3 2.6 3 1.7 0 3.2-1.3 3.4-3l0.2-1 0.2-1.1c0.1-0.4 0.5-0.7 0.9-0.7 0.4 0 0.7 0.3 0.6 0.7l-1 7c-0.2 1.1 0.5 3.2 2.9 3.2 1 0 2.1-0.6 3.5-2.1 0.3 1 1.1 2.1 2.8 2.1h0.1c-2 1.2-4.5 1.9-7 1.9 -7.4 0-13.5-5.9-13.5-13.2S23.1 2.8 30.5 2.8z"/></svg>