<?xml version="1.0" encoding="utf-8"?>
<!-- Generator: Adobe Illustrator 19.0.0, SVG Export Plug-In . SVG Version: 6.00 Build 0)  -->
<svg version="1.1" id="Layer_1" xmlns="http://www.w3.org/2000/svg" xmlns:xlink="http://www.w3.org/1999/xlink" x="0px" y="0px"
	 viewBox="-235 390.9 124 60" style="enable-background:new -235 390.9 124 60;" xml:space="preserve">
<path d="M-199.8,403.2l-2.3-2.2h-11.6l-2.3,2.2V428l6.2-4.4v-6.4l3.9,2.8v8h6.2v-11.1l-2.9-2.1l2.9-2.1
	C-199.8,412.7-199.8,403.2-199.8,403.2z M-205.9,409.7l-3.9,2.8V407l4,0.1L-205.9,409.7z M-199.3,432.4h1.4v3.8h1.4v-3.8h1.5v-1.2
	h-4.3V432.4z M-191.4,431.2l-2.2,4.9h1.5l0.3-0.8h2.2l0.3,0.8h1.4l-2.1-4.9H-191.4z M-191.4,434.2l0.7-1.6l0.7,1.6H-191.4z
	 M-211.1,432.9l-1.3-1.7h-1.4v5h1.4v-2.9l1.4,1.6l1.4-1.6v2.9h1.4v-5h-1.5L-211.1,432.9z M-157.6,420l10.1-7.3v-9.5l-2.3-2.3h-11.7
	l-2.3,2.3V428h6.2C-157.6,428-157.6,420-157.6,420z M-157.5,407h3.9v2.7l-3.9,2.8V407z M-235,400.9l1.5,1.6v36.7l-0.6,1.7l16.9-12.1
	v-13.4h-8.5v6.1h2.3v4.2l-3.9,2.9V407h3.9v2.3h6.2v-6.1l-2.3-2.3H-235z M-204.1,434.2h2.4v-1.1h-2.4v-0.7h2.5v-1.2h-3.9v5h4V435
	h-2.6V434.2z M-144,400.9l-2.3,2.2v19l8.1,5.8l8.1-5.8v-19l-2.2-2.2H-144z M-136.2,419l-3.9,2.8V407h3.9V419z M-182.3,403.2
	l-2.3-2.3h-11.7l-2.3,2.2v24.8h6.2v-6l3.9-2.8v8.9c0,0.1,6.2,0,6.2,0S-182.3,403.2-182.3,403.2z M-188.5,411.6l-3.9,2.8V407h3.9
	V411.6z M-148.3,431.2v4.9h1.3v-4.9l-0.3,0.1L-148.3,431.2z M-155,432.4h1.4v3.8h0.1c0-0.1,0.1-0.1,0.1-0.1c0,0.1,0.1,0.1,0.1,0.1
	v0.1h1.1v-0.5c-0.1-0.1-0.1-0.1-0.1-0.1c0.1,0,0.1,0.1,0.1,0.1v-3.3h1.5v-1.1h-4.3C-155,431.5-155,432.4-155,432.4z M-133.4,433.1
	l-1.1,1.1h1.3v0.7c-0.3,0.2-0.7,0.3-1,0.3c-1,0-1.3-0.8-1.3-1.4c0-1,0.5-1.4,1.3-1.4c0.3,0,0.8,0.1,1.1,0.5l0.9-0.8
	c-0.3-0.3-0.6-0.5-0.9-0.7c-0.1,0-0.1,0-0.1-0.1c-0.3-0.1-0.6-0.1-0.9-0.1h-0.5c-1.6,0.2-2.3,1.4-2.3,2.6c0,0.7,0.3,1.4,0.8,2
	l0.1,0.1c0.5,0.3,1,0.6,1.8,0.6c1,0,1.8-0.3,2.2-1v-2.2h-1.4V433.1z M-126.5,400.9l-2.3,2.2V436l6.8,4.8l-0.6-1.7v-9.8l10.1-7.3
	v-19.5l1.5-1.6H-126.5z M-118.7,419l-3.9,2.8V407h3.9V419z M-140.8,432.2l-0.1,0.7c0,0.2,0,0.4,0.1,1l-0.6-0.7l-0.1-0.1l-1.4-1.9
	h-1.2v5h1.4v-2.6l2.1,2.7h1.2v-4.9h-1.4V432.2z M-164.9,422.3v-6.8l-10.1-7.3V407h4v2.3h6v-6.1l-2.2-2.3h-11.7l-2.2,2.3v8.3
	l10.1,7.3v3l-4-2.8v-2h-6.1v5l8.3,6L-164.9,422.3z M-159.8,434.2h2.4v-1.1h-2.4v-0.7h2.5v-1.2h-3.9v5h4V435h-2.6V434.2z
	 M-184.2,431.2h-1.4v5h3.8V435h-2.4C-184.2,435-184.2,431.2-184.2,431.2z M-173.4,432.9l-1.3-1.7h-1.4v5h1.4v-2.9l1.4,1.6l1.4-1.6
	v2.9h1.4v-5h-1.5L-173.4,432.9z M-166.3,434.2h2.3v-1.1h-2.4v-0.7h2.6v-1.2h-3.9v5h4V435h-2.6V434.2z"/>
</svg>
