<?xml version="1.0" encoding="utf-8"?>
<!-- Generator: Adobe Illustrator 19.0.0, SVG Export Plug-In . SVG Version: 6.00 Build 0)  -->
<svg version="1.1" id="Layer_1" xmlns="http://www.w3.org/2000/svg" xmlns:xlink="http://www.w3.org/1999/xlink" x="0px" y="0px"
	 viewBox="-258 395.9 78 50" style="enable-background:new -258 395.9 78 50;" xml:space="preserve">
<style type="text/css">
	.st0{fill:#FF0000;}
</style>
<path class="st0" d="M-488.6,811.8l3.4-3.4l-6.5-6.6l-6.3,6.2v17l6,5.9l6.7-6.7l-3.3-3.2l-3.7,3.7l-1.1-1.1v-16.8L-488.6,811.8z
	 M-501.2,808l-6.2-6.2l-6.8,6.7V825l-1.8,1.8l4,4.1l4.1-4.1l-1.8-1.8v-3.7h4v3.7l-1.8,1.8l4,4.1l4.1-4.1l-1.8-1.8L-501.2,808
	L-501.2,808z M-505.7,816.5h-4v-9.8l4,4V816.5z M-445.1,824.7l-1.2-1.1v-16.8l4.9,5l3.4-3.4l-6.5-6.6l-6.3,6.2v17l6,5.9l6.7-6.7
	l-3.3-3.2L-445.1,824.7z M-471.4,807.6h-5.1l-5.4,12.3h4.2l-4.2,11.9l11.9-16.4h-4.2L-471.4,807.6z M-465.4,801.8l-3.6,3.6l2,1.9v18
	l-1.9,1.9l3.5,3.7h6.1l5.3-5.3v-18.4l-5.3-5.4L-465.4,801.8L-465.4,801.8z M-458.6,823l-4,3.9V806l4,3.8V823z"/>
</svg>
